<svg xmlns="http://www.w3.org/2000/svg" width="512" height="512" viewBox="0 0 512 512" role="img" aria-labelledby="title">
  <title id="title">EmberHarmony mark</title>
  <defs>
    <radialGradient id="bg" cx="50%" cy="58%" r="72%">
      <stop offset="0" stop-color="#2a1711"/>
      <stop offset="1" stop-color="#151111"/>
    </radialGradient>
    <linearGradient id="outer" x1="256" x2="256" y1="108" y2="432">
      <stop offset="0" stop-color="#ff5a42"/>
      <stop offset=".55" stop-color="#ff7a28"/>
      <stop offset="1" stop-color="#b01605"/>
    </linearGradient>
    <linearGradient id="middle" x1="256" x2="256" y1="148" y2="398">
      <stop offset="0" stop-color="#ffb24a"/>
      <stop offset=".62" stop-color="#ff762f"/>
      <stop offset="1" stop-color="#de2d11"/>
    </linearGradient>
    <linearGradient id="core" x1="256" x2="256" y1="238" y2="407">
      <stop offset="0" stop-color="#ff5b35"/>
      <stop offset="1" stop-color="#a90f00"/>
    </linearGradient>
  </defs>
  <rect width="512" height="512" rx="92" fill="url(#bg)"/>
  <path fill="url(#outer)" d="M256 106c-38 43-58 78-58 119-19-24-27-53-22-87-58 68-74 125-47 180-34-22-48-58-40-105-54 63-59 146-13 210 35 49 98 74 180 74s145-25 180-74c46-64 41-147-13-210 8 47-6 83-40 105 27-55 11-112-47-180 5 34-3 63-22 87 0-41-20-76-58-119Z"/>
  <path fill="#171212" d="M256 140c-28 34-43 63-42 91 0 19 6 36 17 51-32-30-45-65-38-107-45 58-41 119 13 183-32-16-53-43-64-80-21 52-5 99 48 142-39-12-70-33-93-64 18 57 72 96 159 96s141-39 159-96c-23 31-54 52-93 64 53-43 69-90 48-142-11 37-32 64-64 80 54-64 58-125 13-183 7 42-6 77-38 107 11-15 17-32 17-51 1-28-14-57-42-91Z"/>
  <path fill="url(#middle)" d="M256 151c-26 35-36 64-29 92 5 21 20 39 42 57-43-12-75-42-95-88-17 49-3 91 43 127-34 3-62-12-84-45 8 77 52 128 123 128s115-51 123-128c-22 33-50 48-84 45 46-36 60-78 43-127-20 46-52 76-95 88 22-18 37-36 42-57 7-28-3-57-29-92Z"/>
  <path fill="#21110c" d="M256 205c-5 62 69 70 68 136 0 20-9 39-27 56 41-14 66-47 66-90 0-31-13-63-38-95-4 31-22 57-54 79 9-37 4-65-15-86Z"/>
  <path fill="url(#core)" d="M256 248c17 31 17 59 0 84 19-7 35-20 48-40 15 52-7 102-48 102s-63-50-48-102c13 20 29 33 48 40-17-25-17-53 0-84Z"/>
</svg>
