<svg width="512" height="512" viewBox="0 0 512 512" fill="none" xmlns="http://www.w3.org/2000/svg"><rect x="292" y="72" width="148" height="2" fill=""/><rect x="292" y="74" width="148" height="2" fill=""/><rect x="292" y="76" width="148" height="2" fill=""/><rect x="292" y="78" width="148" height="2" fill=""/><rect x="292" y="80" width="148" height="2" fill=""/><rect x="292" y="82" width="148" height="2" fill=""/><rect x="292" y="84" width="148" height="2" fill=""/><rect x="292" y="86" width="148" height="2" fill=""/><rect x="292" y="88" width="148" height="2" fill=""/><rect x="292" y="90" width="148" height="2" fill=""/><rect x="292" y="92" width="148" height="2" fill=""/><rect x="292" y="94" width="148" height="2" fill=""/><rect x="292" y="96" width="148" height="2" fill=""/><rect x="292" y="98" width="148" height="2" fill=""/><rect x="292" y="100" width="148" height="2" fill=""/><rect x="292" y="102" width="148" height="2" fill=""/><rect x="292" y="104" width="148" height="2" fill=""/><rect x="292" y="106" width="148" height="2" fill=""/><rect x="292" y="108" width="148" height="2" fill=""/><rect x="292" y="110" width="148" height="2" fill=""/><rect x="292" y="112" width="148" height="2" fill=""/><rect x="292" y="114" width="148" height="2" fill=""/><rect x="292" y="116" width="148" height="2" fill=""/><rect x="292" y="118" width="148" height="2" fill=""/><rect x="292" y="120" width="148" height="2" fill=""/><rect x="292" y="122" width="148" height="2" fill=""/><rect x="292" y="124" width="148" height="2" fill=""/><rect x="292" y="126" width="148" height="2" fill=""/><rect x="292" y="128" width="148" height="2" fill=""/><rect x="292" y="130" width="148" height="2" fill=""/><rect x="292" y="132" width="148" height="2" fill=""/><rect x="292" y="134" width="148" height="2" fill=""/><rect x="292" y="136" width="148" height="2" fill=""/><rect x="292" y="138" width="148" height="2" fill=""/><rect x="292" y="140" width="148" height="2" fill=""/><rect x="292" y="142" width="148" height="2" fill=""/><rect x="292" y="144" width="148" height="2" fill=""/><rect x="146" y="146" width="366" height="2" fill=""/><rect x="146" y="148" width="366" height="2" fill=""/><rect x="146" y="150" width="366" height="2" fill=""/><rect x="146" y="152" width="366" height="2" fill=""/><rect x="146" y="154" width="366" height="2" fill=""/><rect x="146" y="156" width="366" height="2" fill=""/><rect x="146" y="158" width="366" height="2" fill=""/><rect x="146" y="160" width="366" height="2" fill=""/><rect x="146" y="162" width="366" height="2" fill=""/><rect x="146" y="164" width="366" height="2" fill=""/><rect x="146" y="166" width="366" height="2" fill=""/><rect x="146" y="168" width="366" height="2" fill=""/><rect x="146" y="170" width="366" height="2" fill=""/><rect x="146" y="172" width="366" height="2" fill=""/><rect x="146" y="174" width="366" height="2" fill=""/><rect x="146" y="176" width="366" height="2" fill=""/><rect x="146" y="178" width="366" height="2" fill=""/><rect x="146" y="180" width="366" height="2" fill=""/><rect x="146" y="182" width="366" height="2" fill=""/><rect x="146" y="184" width="366" height="2" fill=""/><rect x="146" y="186" width="366" height="2" fill=""/><rect x="146" y="188" width="366" height="2" fill=""/><rect x="146" y="190" width="366" height="2" fill=""/><rect x="146" y="192" width="366" height="2" fill=""/><rect x="146" y="194" width="366" height="2" fill=""/><rect x="146" y="196" width="366" height="2" fill=""/><rect x="146" y="198" width="366" height="2" fill=""/><rect x="146" y="200" width="366" height="2" fill=""/><rect x="146" y="202" width="366" height="2" fill=""/><rect x="146" y="204" width="366" height="2" fill=""/><rect x="146" y="206" width="366" height="2" fill=""/><rect x="146" y="208" width="366" height="2" fill=""/><rect x="146" y="210" width="366" height="2" fill=""/><rect x="146" y="212" width="366" height="2" fill=""/><rect x="146" y="214" width="366" height="2" fill=""/><rect x="146" y="216" width="366" height="2" fill=""/><rect x="72" y="218" width="440" height="2" fill=""/><rect x="72" y="220" width="440" height="2" fill=""/><rect x="72" y="222" width="440" height="2" fill=""/><rect x="72" y="224" width="440" height="2" fill=""/><rect x="72" y="226" width="440" height="2" fill=""/><rect x="72" y="228" width="440" height="2" fill=""/><rect x="72" y="230" width="440" height="2" fill=""/><rect x="72" y="232" width="440" height="2" fill=""/><rect x="72" y="234" width="440" height="2" fill=""/><rect x="72" y="236" width="440" height="2" fill=""/><rect x="72" y="238" width="440" height="2" fill=""/><rect x="72" y="240" width="440" height="2" fill=""/><rect x="72" y="242" width="440" height="2" fill=""/><rect x="72" y="244" width="440" height="2" fill=""/><rect x="72" y="246" width="440" height="2" fill=""/><rect x="72" y="248" width="440" height="2" fill=""/><rect x="72" y="250" width="440" height="2" fill=""/><rect x="72" y="252" width="440" height="2" fill=""/><rect x="72" y="254" width="440" height="2" fill=""/><rect x="72" y="256" width="440" height="2" fill=""/><rect x="72" y="258" width="440" height="2" fill=""/><rect x="72" y="260" width="440" height="2" fill=""/><rect x="72" y="262" width="440" height="2" fill=""/><rect x="72" y="264" width="440" height="2" fill=""/><rect x="72" y="266" width="440" height="2" fill=""/><rect x="72" y="268" width="440" height="2" fill=""/><rect x="72" y="270" width="440" height="2" fill=""/><rect x="72" y="272" width="440" height="2" fill=""/><rect x="72" y="274" width="440" height="2" fill=""/><rect x="72" y="276" width="440" height="2" fill=""/><rect x="72" y="278" width="440" height="2" fill=""/><rect x="72" y="280" width="440" height="2" fill=""/><rect x="72" y="282" width="440" height="2" fill=""/><rect x="72" y="284" width="440" height="2" fill=""/><rect x="72" y="286" width="440" height="2" fill=""/><rect x="72" y="288" width="440" height="2" fill=""/><rect x="72" y="290" width="440" height="2" fill=""/><rect x="72" y="292" width="440" height="2" fill=""/><rect x="72" y="294" width="440" height="2" fill=""/><rect x="72" y="296" width="440" height="2" fill=""/><rect x="72" y="298" width="440" height="2" fill=""/><rect x="72" y="300" width="440" height="2" fill=""/><rect x="72" y="302" width="440" height="2" fill=""/><rect x="72" y="304" width="440" height="2" fill=""/><rect x="72" y="306" width="440" height="2" fill=""/><rect x="72" y="308" width="440" height="2" fill=""/><rect x="72" y="310" width="440" height="2" fill=""/><rect x="72" y="312" width="440" height="2" fill=""/><rect x="72" y="314" width="440" height="2" fill=""/><rect x="72" y="316" width="440" height="2" fill=""/><rect x="72" y="318" width="440" height="2" fill=""/><rect x="72" y="320" width="440" height="2" fill=""/><rect x="72" y="322" width="440" height="2" fill=""/><rect x="72" y="324" width="440" height="2" fill=""/><rect x="72" y="326" width="440" height="2" fill=""/><rect x="72" y="328" width="440" height="2" fill=""/><rect x="72" y="330" width="440" height="2" fill=""/><rect x="72" y="332" width="440" height="2" fill=""/><rect x="72" y="334" width="440" height="2" fill=""/><rect x="72" y="336" width="440" height="2" fill=""/><rect x="72" y="338" width="440" height="2" fill=""/><rect x="72" y="340" width="440" height="2" fill=""/><rect x="72" y="342" width="440" height="2" fill=""/><rect x="72" y="344" width="440" height="2" fill=""/><rect x="72" y="346" width="440" height="2" fill=""/><rect x="72" y="348" width="440" height="2" fill=""/><rect x="72" y="350" width="440" height="2" fill=""/><rect x="72" y="352" width="440" height="2" fill=""/><rect x="72" y="354" width="440" height="2" fill=""/><rect x="72" y="356" width="440" height="2" fill=""/><rect x="72" y="358" width="440" height="2" fill=""/><rect x="72" y="360" width="440" height="2" fill=""/><rect x="72" y="362" width="440" height="2" fill=""/><rect x="72" y="364" width="440" height="2" fill=""/><rect x="218" y="366" width="294" height="2" fill=""/><rect x="218" y="368" width="294" height="2" fill=""/><rect x="218" y="370" width="294" height="2" fill=""/><rect x="218" y="372" width="294" height="2" fill=""/><rect x="218" y="374" width="294" height="2" fill=""/><rect x="218" y="376" width="294" height="2" fill=""/><rect x="218" y="378" width="294" height="2" fill=""/><rect x="218" y="380" width="294" height="2" fill=""/><rect x="218" y="382" width="294" height="2" fill=""/><rect x="218" y="384" width="294" height="2" fill=""/><rect x="218" y="386" width="294" height="2" fill=""/><rect x="218" y="388" width="294" height="2" fill=""/><rect x="218" y="390" width="294" height="2" fill=""/><rect x="218" y="392" width="294" height="2" fill=""/><rect x="218" y="394" width="294" height="2" fill=""/><rect x="218" y="396" width="294" height="2" fill=""/><rect x="218" y="398" width="294" height="2" fill=""/><rect x="218" y="400" width="294" height="2" fill=""/><rect x="218" y="402" width="294" height="2" fill=""/><rect x="218" y="404" width="294" height="2" fill=""/><rect x="218" y="406" width="294" height="2" fill=""/><rect x="218" y="408" width="294" height="2" fill=""/><rect x="218" y="410" width="294" height="2" fill=""/><rect x="218" y="412" width="294" height="2" fill=""/><rect x="218" y="414" width="294" height="2" fill=""/><rect x="218" y="416" width="294" height="2" fill=""/><rect x="218" y="418" width="294" height="2" fill=""/><rect x="218" y="420" width="294" height="2" fill=""/><rect x="218" y="422" width="294" height="2" fill=""/><rect x="218" y="424" width="294" height="2" fill=""/><rect x="218" y="426" width="294" height="2" fill=""/><rect x="218" y="428" width="294" height="2" fill=""/><rect x="218" y="430" width="294" height="2" fill=""/><rect x="218" y="432" width="294" height="2" fill=""/><rect x="218" y="434" width="294" height="2" fill=""/><rect x="218" y="436" width="294" height="2" fill=""/><rect x="218" y="438" width="294" height="2" fill=""/></svg>