<svg xmlns="http://www.w3.org/2000/svg" width="234" height="42" viewBox="0 0 234 42" fill="none" role="img" aria-labelledby="title">
  <title id="title">EmberHarmony</title>
  <defs>
    <radialGradient id="mark-bg" cx="50%" cy="58%" r="75%">
      <stop offset="0" stop-color="#2a1711"/>
      <stop offset="1" stop-color="#151111"/>
    </radialGradient>
    <linearGradient id="flame-a" x1="21" x2="21" y1="10.4" y2="34.2">
      <stop offset="0" stop-color="#ff5a42"/>
      <stop offset=".58" stop-color="#ff7a28"/>
      <stop offset="1" stop-color="#b01605"/>
    </linearGradient>
    <linearGradient id="flame-b" x1="21" x2="21" y1="13.6" y2="32.2">
      <stop offset="0" stop-color="#ffb24a"/>
      <stop offset=".62" stop-color="#ff762f"/>
      <stop offset="1" stop-color="#de2d11"/>
    </linearGradient>
    <linearGradient id="flame-c" x1="21" x2="21" y1="23.7" y2="32.8">
      <stop offset="0" stop-color="#ff5b35"/>
      <stop offset="1" stop-color="#a90f00"/>
    </linearGradient>
  </defs>
  <rect x="3" y="3" width="36" height="36" rx="6.5" fill="url(#mark-bg)"/>
  <path fill="url(#flame-a)" d="M21 9.6c-2.7 3.1-4.2 5.6-4.2 8.5-1.4-1.7-1.9-3.8-1.6-6.2-4.1 4.8-5.3 9-3.4 12.9-2.4-1.6-3.4-4.1-2.8-7.5-3.9 4.5-4.2 10.5-.9 15 2.5 3.5 7 5.3 12.9 5.3s10.4-1.8 12.9-5.3c3.3-4.5 3-10.5-.9-15 .6 3.4-.4 5.9-2.8 7.5 1.9-3.9.7-8.1-3.4-12.9.3 2.4-.2 4.5-1.6 6.2 0-2.9-1.5-5.4-4.2-8.5Z"/>
  <path fill="#171212" d="M21 12.1c-2 2.4-3.1 4.5-3 6.5 0 1.4.4 2.6 1.2 3.7-2.3-2.1-3.2-4.6-2.7-7.6-3.2 4.2-2.9 8.5.9 13.1-2.3-1.1-3.8-3.1-4.6-5.7-1.5 3.7-.4 7.1 3.4 10.2-2.8-.9-5-2.4-6.6-4.6 1.3 4.1 5.1 6.9 11.4 6.9s10.1-2.8 11.4-6.9c-1.6 2.2-3.8 3.7-6.6 4.6 3.8-3.1 4.9-6.5 3.4-10.2-.8 2.6-2.3 4.6-4.6 5.7 3.8-4.6 4.1-8.9.9-13.1.5 3-.4 5.5-2.7 7.6.8-1.1 1.2-2.3 1.2-3.7.1-2-1-4.1-3-6.5Z"/>
  <path fill="url(#flame-b)" d="M21 13c-1.9 2.5-2.6 4.6-2.1 6.6.3 1.5 1.4 2.8 3 4.1-3.1-.9-5.4-3-6.8-6.3-1.2 3.5-.2 6.5 3.1 9.1-2.5.2-4.5-.9-6-3.2.6 5.5 3.7 9.1 8.8 9.1s8.2-3.6 8.8-9.1c-1.5 2.3-3.5 3.4-6 3.2 3.3-2.6 4.3-5.6 3.1-9.1-1.4 3.3-3.7 5.4-6.8 6.3 1.6-1.3 2.7-2.6 3-4.1.5-2-.2-4.1-2.1-6.6Z"/>
  <path fill="#21110c" d="M21 17c-.4 4.5 5 5.1 4.9 9.9 0 1.4-.7 2.8-2 4 2.9-1 4.7-3.4 4.7-6.4 0-2.2-.9-4.5-2.7-6.8-.3 2.2-1.6 4.1-3.9 5.6.7-2.7.4-4.7-1-6.3Z"/>
  <path fill="url(#flame-c)" d="M21 20.2c1.2 2.2 1.2 4.2 0 6 1.4-.5 2.5-1.4 3.4-2.9 1.1 3.7-.5 7.3-3.4 7.3s-4.5-3.6-3.4-7.3c.9 1.5 2 2.4 3.4 2.9-1.2-1.8-1.2-3.8 0-6Z"/>
  <text x="50" y="30" fill="#fc533a" font-family="Inter, Avenir, Helvetica, Arial, sans-serif" font-size="25" font-weight="800" letter-spacing="0" textLength="76" lengthAdjust="spacingAndGlyphs">Ember</text>
  <text x="128" y="30" fill="#f1ecec" font-family="Inter, Avenir, Helvetica, Arial, sans-serif" font-size="25" font-weight="800" letter-spacing="0" textLength="103" lengthAdjust="spacingAndGlyphs">Harmony</text>
</svg>
