<svg width="234" height="42" viewBox="0 0 234 42" fill="none" xmlns="http://www.w3.org/2000/svg"><rect x="24" y="6" width="13" height="1" fill="#17181C"/><rect x="24" y="7" width="13" height="1" fill="#17181C"/><rect x="24" y="8" width="13" height="1" fill="#17181C"/><rect x="53" y="8" width="17" height="1" fill="#17181C"/><rect x="74" y="8" width="5" height="1" fill="#17181C"/><rect x="92" y="8" width="5" height="1" fill="#17181C"/><rect x="101" y="8" width="14" height="1" fill="#17181C"/><rect x="124" y="8" width="17" height="1" fill="#17181C"/><rect x="146" y="8" width="14" height="1" fill="#17181C"/><rect x="170" y="8" width="3" height="1" fill="#17181C"/><rect x="185" y="8" width="3" height="1" fill="#17181C"/><rect x="200" y="8" width="4" height="1" fill="#17181C"/><rect x="216" y="8" width="14" height="1" fill="#17181C"/><rect x="24" y="9" width="13" height="1" fill="#17181C"/><rect x="53" y="9" width="17" height="1" fill="#17181C"/><rect x="74" y="9" width="6" height="1" fill="#17181C"/><rect x="92" y="9" width="5" height="1" fill="#17181C"/><rect x="101" y="9" width="16" height="1" fill="#17181C"/><rect x="124" y="9" width="17" height="1" fill="#17181C"/><rect x="146" y="9" width="16" height="1" fill="#17181C"/><rect x="170" y="9" width="3" height="1" fill="#17181C"/><rect x="185" y="9" width="3" height="1" fill="#17181C"/><rect x="200" y="9" width="5" height="1" fill="#17181C"/><rect x="216" y="9" width="16" height="1" fill="#17181C"/><rect x="24" y="10" width="13" height="1" fill="#17181C"/><rect x="53" y="10" width="17" height="1" fill="#17181C"/><rect x="74" y="10" width="6" height="1" fill="#17181C"/><rect x="92" y="10" width="5" height="1" fill="#17181C"/><rect x="101" y="10" width="16" height="1" fill="#17181C"/><rect x="124" y="10" width="17" height="1" fill="#17181C"/><rect x="146" y="10" width="17" height="1" fill="#17181C"/><rect x="170" y="10" width="3" height="1" fill="#17181C"/><rect x="185" y="10" width="3" height="1" fill="#17181C"/><rect x="199" y="10" width="6" height="1" fill="#17181C"/><rect x="216" y="10" width="17" height="1" fill="#17181C"/><rect x="24" y="11" width="13" height="1" fill="#17181C"/><rect x="53" y="11" width="3" height="1" fill="#17181C"/><rect x="74" y="11" width="6" height="1" fill="#17181C"/><rect x="91" y="11" width="6" height="1" fill="#17181C"/><rect x="101" y="11" width="4" height="1" fill="#17181C"/><rect x="114" y="11" width="4" height="1" fill="#17181C"/><rect x="124" y="11" width="3" height="1" fill="#17181C"/><rect x="146" y="11" width="3" height="1" fill="#17181C"/><rect x="160" y="11" width="4" height="1" fill="#17181C"/><rect x="170" y="11" width="3" height="1" fill="#17181C"/><rect x="185" y="11" width="3" height="1" fill="#17181C"/><rect x="199" y="11" width="6" height="1" fill="#17181C"/><rect x="216" y="11" width="3" height="1" fill="#17181C"/><rect x="230" y="11" width="4" height="1" fill="#17181C"/><rect x="12" y="12" width="37" height="1" fill="#17181C"/><rect x="53" y="12" width="3" height="1" fill="#17181C"/><rect x="74" y="12" width="7" height="1" fill="#17181C"/><rect x="91" y="12" width="6" height="1" fill="#17181C"/><rect x="101" y="12" width="4" height="1" fill="#17181C"/><rect x="115" y="12" width="3" height="1" fill="#17181C"/><rect x="124" y="12" width="3" height="1" fill="#17181C"/><rect x="146" y="12" width="3" height="1" fill="#17181C"/><rect x="161" y="12" width="3" height="1" fill="#17181C"/><rect x="170" y="12" width="3" height="1" fill="#17181C"/><rect x="185" y="12" width="3" height="1" fill="#17181C"/><rect x="199" y="12" width="7" height="1" fill="#17181C"/><rect x="216" y="12" width="3" height="1" fill="#17181C"/><rect x="231" y="12" width="3" height="1" fill="#17181C"/><rect x="12" y="13" width="37" height="1" fill="#17181C"/><rect x="53" y="13" width="3" height="1" fill="#17181C"/><rect x="74" y="13" width="3" height="1" fill="#17181C"/><rect x="78" y="13" width="3" height="1" fill="#17181C"/><rect x="91" y="13" width="6" height="1" fill="#17181C"/><rect x="101" y="13" width="4" height="1" fill="#17181C"/><rect x="115" y="13" width="4" height="1" fill="#17181C"/><rect x="124" y="13" width="3" height="1" fill="#17181C"/><rect x="146" y="13" width="3" height="1" fill="#17181C"/><rect x="161" y="13" width="4" height="1" fill="#17181C"/><rect x="170" y="13" width="3" height="1" fill="#17181C"/><rect x="185" y="13" width="3" height="1" fill="#17181C"/><rect x="198" y="13" width="3" height="1" fill="#17181C"/><rect x="203" y="13" width="3" height="1" fill="#17181C"/><rect x="216" y="13" width="3" height="1" fill="#17181C"/><rect x="231" y="13" width="3" height="1" fill="#17181C"/><rect x="12" y="14" width="37" height="1" fill="#17181C"/><rect x="53" y="14" width="3" height="1" fill="#17181C"/><rect x="74" y="14" width="3" height="1" fill="#17181C"/><rect x="78" y="14" width="3" height="1" fill="#17181C"/><rect x="90" y="14" width="3" height="1" fill="#17181C"/><rect x="94" y="14" width="3" height="1" fill="#17181C"/><rect x="101" y="14" width="4" height="1" fill="#17181C"/><rect x="115" y="14" width="3" height="1" fill="#17181C"/><rect x="124" y="14" width="3" height="1" fill="#17181C"/><rect x="146" y="14" width="3" height="1" fill="#17181C"/><rect x="161" y="14" width="4" height="1" fill="#17181C"/><rect x="170" y="14" width="3" height="1" fill="#17181C"/><rect x="185" y="14" width="3" height="1" fill="#17181C"/><rect x="198" y="14" width="3" height="1" fill="#17181C"/><rect x="203" y="14" width="3" height="1" fill="#17181C"/><rect x="216" y="14" width="3" height="1" fill="#17181C"/><rect x="231" y="14" width="3" height="1" fill="#17181C"/><rect x="12" y="15" width="37" height="1" fill="#17181C"/><rect x="53" y="15" width="3" height="1" fill="#17181C"/><rect x="74" y="15" width="3" height="1" fill="#17181C"/><rect x="79" y="15" width="3" height="1" fill="#17181C"/><rect x="90" y="15" width="3" height="1" fill="#17181C"/><rect x="94" y="15" width="3" height="1" fill="#17181C"/><rect x="101" y="15" width="4" height="1" fill="#17181C"/><rect x="115" y="15" width="3" height="1" fill="#17181C"/><rect x="124" y="15" width="3" height="1" fill="#17181C"/><rect x="146" y="15" width="3" height="1" fill="#17181C"/><rect x="161" y="15" width="4" height="1" fill="#17181C"/><rect x="170" y="15" width="3" height="1" fill="#17181C"/><rect x="185" y="15" width="3" height="1" fill="#17181C"/><rect x="198" y="15" width="3" height="1" fill="#17181C"/><rect x="203" y="15" width="4" height="1" fill="#17181C"/><rect x="216" y="15" width="3" height="1" fill="#17181C"/><rect x="231" y="15" width="3" height="1" fill="#17181C"/><rect x="12" y="16" width="37" height="1" fill="#17181C"/><rect x="53" y="16" width="3" height="1" fill="#17181C"/><rect x="74" y="16" width="3" height="1" fill="#17181C"/><rect x="79" y="16" width="3" height="1" fill="#17181C"/><rect x="90" y="16" width="3" height="1" fill="#17181C"/><rect x="94" y="16" width="3" height="1" fill="#17181C"/><rect x="101" y="16" width="4" height="1" fill="#17181C"/><rect x="115" y="16" width="3" height="1" fill="#17181C"/><rect x="124" y="16" width="3" height="1" fill="#17181C"/><rect x="146" y="16" width="3" height="1" fill="#17181C"/><rect x="161" y="16" width="3" height="1" fill="#17181C"/><rect x="170" y="16" width="3" height="1" fill="#17181C"/><rect x="185" y="16" width="3" height="1" fill="#17181C"/><rect x="197" y="16" width="3" height="1" fill="#17181C"/><rect x="204" y="16" width="3" height="1" fill="#17181C"/><rect x="216" y="16" width="3" height="1" fill="#17181C"/><rect x="231" y="16" width="3" height="1" fill="#17181C"/><rect x="12" y="17" width="37" height="1" fill="#17181C"/><rect x="53" y="17" width="3" height="1" fill="#17181C"/><rect x="74" y="17" width="3" height="1" fill="#17181C"/><rect x="79" y="17" width="3" height="1" fill="#17181C"/><rect x="89" y="17" width="3" height="1" fill="#17181C"/><rect x="94" y="17" width="3" height="1" fill="#17181C"/><rect x="101" y="17" width="4" height="1" fill="#17181C"/><rect x="113" y="17" width="4" height="1" fill="#17181C"/><rect x="124" y="17" width="3" height="1" fill="#17181C"/><rect x="146" y="17" width="3" height="1" fill="#17181C"/><rect x="161" y="17" width="3" height="1" fill="#17181C"/><rect x="170" y="17" width="3" height="1" fill="#17181C"/><rect x="185" y="17" width="3" height="1" fill="#17181C"/><rect x="197" y="17" width="3" height="1" fill="#17181C"/><rect x="204" y="17" width="3" height="1" fill="#17181C"/><rect x="216" y="17" width="3" height="1" fill="#17181C"/><rect x="231" y="17" width="3" height="1" fill="#17181C"/><rect x="6" y="18" width="63" height="1" fill="#17181C"/><rect x="74" y="18" width="3" height="1" fill="#17181C"/><rect x="80" y="18" width="3" height="1" fill="#17181C"/><rect x="89" y="18" width="3" height="1" fill="#17181C"/><rect x="94" y="18" width="3" height="1" fill="#17181C"/><rect x="101" y="18" width="15" height="1" fill="#17181C"/><rect x="124" y="18" width="16" height="1" fill="#17181C"/><rect x="146" y="18" width="3" height="1" fill="#17181C"/><rect x="159" y="18" width="4" height="1" fill="#17181C"/><rect x="170" y="18" width="18" height="1" fill="#17181C"/><rect x="196" y="18" width="4" height="1" fill="#17181C"/><rect x="204" y="18" width="4" height="1" fill="#17181C"/><rect x="216" y="18" width="3" height="1" fill="#17181C"/><rect x="229" y="18" width="4" height="1" fill="#17181C"/><rect x="6" y="19" width="63" height="1" fill="#17181C"/><rect x="74" y="19" width="3" height="1" fill="#17181C"/><rect x="80" y="19" width="3" height="1" fill="#17181C"/><rect x="89" y="19" width="3" height="1" fill="#17181C"/><rect x="94" y="19" width="3" height="1" fill="#17181C"/><rect x="101" y="19" width="15" height="1" fill="#17181C"/><rect x="124" y="19" width="16" height="1" fill="#17181C"/><rect x="146" y="19" width="17" height="1" fill="#17181C"/><rect x="170" y="19" width="18" height="1" fill="#17181C"/><rect x="196" y="19" width="3" height="1" fill="#17181C"/><rect x="205" y="19" width="3" height="1" fill="#17181C"/><rect x="216" y="19" width="17" height="1" fill="#17181C"/><rect x="6" y="20" width="63" height="1" fill="#17181C"/><rect x="74" y="20" width="3" height="1" fill="#17181C"/><rect x="80" y="20" width="3" height="1" fill="#17181C"/><rect x="88" y="20" width="3" height="1" fill="#17181C"/><rect x="94" y="20" width="3" height="1" fill="#17181C"/><rect x="101" y="20" width="17" height="1" fill="#17181C"/><rect x="124" y="20" width="16" height="1" fill="#17181C"/><rect x="146" y="20" width="16" height="1" fill="#17181C"/><rect x="170" y="20" width="18" height="1" fill="#17181C"/><rect x="196" y="20" width="3" height="1" fill="#17181C"/><rect x="205" y="20" width="3" height="1" fill="#17181C"/><rect x="216" y="20" width="16" height="1" fill="#17181C"/><rect x="6" y="21" width="50" height="1" fill="#17181C"/><rect x="74" y="21" width="3" height="1" fill="#17181C"/><rect x="81" y="21" width="3" height="1" fill="#17181C"/><rect x="88" y="21" width="3" height="1" fill="#17181C"/><rect x="94" y="21" width="3" height="1" fill="#17181C"/><rect x="101" y="21" width="4" height="1" fill="#17181C"/><rect x="114" y="21" width="5" height="1" fill="#17181C"/><rect x="124" y="21" width="3" height="1" fill="#17181C"/><rect x="146" y="21" width="17" height="1" fill="#17181C"/><rect x="170" y="21" width="3" height="1" fill="#17181C"/><rect x="185" y="21" width="3" height="1" fill="#17181C"/><rect x="195" y="21" width="3" height="1" fill="#17181C"/><rect x="205" y="21" width="4" height="1" fill="#17181C"/><rect x="216" y="21" width="17" height="1" fill="#17181C"/><rect x="6" y="22" width="50" height="1" fill="#17181C"/><rect x="74" y="22" width="3" height="1" fill="#17181C"/><rect x="81" y="22" width="3" height="1" fill="#17181C"/><rect x="88" y="22" width="3" height="1" fill="#17181C"/><rect x="94" y="22" width="3" height="1" fill="#17181C"/><rect x="101" y="22" width="4" height="1" fill="#17181C"/><rect x="116" y="22" width="3" height="1" fill="#17181C"/><rect x="124" y="22" width="3" height="1" fill="#17181C"/><rect x="146" y="22" width="3" height="1" fill="#17181C"/><rect x="159" y="22" width="5" height="1" fill="#17181C"/><rect x="170" y="22" width="3" height="1" fill="#17181C"/><rect x="185" y="22" width="3" height="1" fill="#17181C"/><rect x="195" y="22" width="14" height="1" fill="#17181C"/><rect x="216" y="22" width="3" height="1" fill="#17181C"/><rect x="229" y="22" width="5" height="1" fill="#17181C"/><rect x="6" y="23" width="50" height="1" fill="#17181C"/><rect x="74" y="23" width="3" height="1" fill="#17181C"/><rect x="81" y="23" width="3" height="1" fill="#17181C"/><rect x="87" y="23" width="3" height="1" fill="#17181C"/><rect x="94" y="23" width="3" height="1" fill="#17181C"/><rect x="101" y="23" width="4" height="1" fill="#17181C"/><rect x="116" y="23" width="4" height="1" fill="#17181C"/><rect x="124" y="23" width="3" height="1" fill="#17181C"/><rect x="146" y="23" width="3" height="1" fill="#17181C"/><rect x="160" y="23" width="4" height="1" fill="#17181C"/><rect x="170" y="23" width="3" height="1" fill="#17181C"/><rect x="185" y="23" width="3" height="1" fill="#17181C"/><rect x="195" y="23" width="15" height="1" fill="#17181C"/><rect x="216" y="23" width="3" height="1" fill="#17181C"/><rect x="230" y="23" width="4" height="1" fill="#17181C"/><rect x="6" y="24" width="50" height="1" fill="#17181C"/><rect x="74" y="24" width="3" height="1" fill="#17181C"/><rect x="82" y="24" width="3" height="1" fill="#17181C"/><rect x="87" y="24" width="3" height="1" fill="#17181C"/><rect x="94" y="24" width="3" height="1" fill="#17181C"/><rect x="101" y="24" width="4" height="1" fill="#17181C"/><rect x="116" y="24" width="4" height="1" fill="#17181C"/><rect x="124" y="24" width="3" height="1" fill="#17181C"/><rect x="146" y="24" width="3" height="1" fill="#17181C"/><rect x="161" y="24" width="3" height="1" fill="#17181C"/><rect x="170" y="24" width="3" height="1" fill="#17181C"/><rect x="185" y="24" width="3" height="1" fill="#17181C"/><rect x="194" y="24" width="16" height="1" fill="#17181C"/><rect x="216" y="24" width="3" height="1" fill="#17181C"/><rect x="231" y="24" width="3" height="1" fill="#17181C"/><rect x="6" y="25" width="50" height="1" fill="#17181C"/><rect x="74" y="25" width="3" height="1" fill="#17181C"/><rect x="82" y="25" width="3" height="1" fill="#17181C"/><rect x="87" y="25" width="3" height="1" fill="#17181C"/><rect x="94" y="25" width="3" height="1" fill="#17181C"/><rect x="101" y="25" width="4" height="1" fill="#17181C"/><rect x="116" y="25" width="4" height="1" fill="#17181C"/><rect x="124" y="25" width="3" height="1" fill="#17181C"/><rect x="146" y="25" width="3" height="1" fill="#17181C"/><rect x="161" y="25" width="3" height="1" fill="#17181C"/><rect x="170" y="25" width="3" height="1" fill="#17181C"/><rect x="185" y="25" width="3" height="1" fill="#17181C"/><rect x="194" y="25" width="3" height="1" fill="#17181C"/><rect x="207" y="25" width="3" height="1" fill="#17181C"/><rect x="216" y="25" width="3" height="1" fill="#17181C"/><rect x="231" y="25" width="3" height="1" fill="#17181C"/><rect x="6" y="26" width="50" height="1" fill="#17181C"/><rect x="74" y="26" width="3" height="1" fill="#17181C"/><rect x="82" y="26" width="3" height="1" fill="#17181C"/><rect x="86" y="26" width="3" height="1" fill="#17181C"/><rect x="94" y="26" width="3" height="1" fill="#17181C"/><rect x="101" y="26" width="4" height="1" fill="#17181C"/><rect x="116" y="26" width="3" height="1" fill="#17181C"/><rect x="124" y="26" width="3" height="1" fill="#17181C"/><rect x="146" y="26" width="3" height="1" fill="#17181C"/><rect x="161" y="26" width="3" height="1" fill="#17181C"/><rect x="170" y="26" width="3" height="1" fill="#17181C"/><rect x="185" y="26" width="3" height="1" fill="#17181C"/><rect x="194" y="26" width="3" height="1" fill="#17181C"/><rect x="207" y="26" width="4" height="1" fill="#17181C"/><rect x="216" y="26" width="3" height="1" fill="#17181C"/><rect x="231" y="26" width="3" height="1" fill="#17181C"/><rect x="6" y="27" width="50" height="1" fill="#17181C"/><rect x="74" y="27" width="3" height="1" fill="#17181C"/><rect x="83" y="27" width="6" height="1" fill="#17181C"/><rect x="94" y="27" width="3" height="1" fill="#17181C"/><rect x="101" y="27" width="4" height="1" fill="#17181C"/><rect x="116" y="27" width="3" height="1" fill="#17181C"/><rect x="124" y="27" width="3" height="1" fill="#17181C"/><rect x="146" y="27" width="3" height="1" fill="#17181C"/><rect x="161" y="27" width="3" height="1" fill="#17181C"/><rect x="170" y="27" width="3" height="1" fill="#17181C"/><rect x="185" y="27" width="3" height="1" fill="#17181C"/><rect x="193" y="27" width="3" height="1" fill="#17181C"/><rect x="208" y="27" width="3" height="1" fill="#17181C"/><rect x="216" y="27" width="3" height="1" fill="#17181C"/><rect x="231" y="27" width="3" height="1" fill="#17181C"/><rect x="6" y="28" width="50" height="1" fill="#17181C"/><rect x="74" y="28" width="3" height="1" fill="#17181C"/><rect x="83" y="28" width="6" height="1" fill="#17181C"/><rect x="94" y="28" width="3" height="1" fill="#17181C"/><rect x="101" y="28" width="4" height="1" fill="#17181C"/><rect x="114" y="28" width="5" height="1" fill="#17181C"/><rect x="124" y="28" width="3" height="1" fill="#17181C"/><rect x="146" y="28" width="3" height="1" fill="#17181C"/><rect x="161" y="28" width="3" height="1" fill="#17181C"/><rect x="170" y="28" width="3" height="1" fill="#17181C"/><rect x="185" y="28" width="3" height="1" fill="#17181C"/><rect x="193" y="28" width="3" height="1" fill="#17181C"/><rect x="208" y="28" width="3" height="1" fill="#17181C"/><rect x="216" y="28" width="3" height="1" fill="#17181C"/><rect x="231" y="28" width="3" height="1" fill="#17181C"/><rect x="6" y="29" width="64" height="1" fill="#17181C"/><rect x="74" y="29" width="3" height="1" fill="#17181C"/><rect x="83" y="29" width="5" height="1" fill="#17181C"/><rect x="94" y="29" width="3" height="1" fill="#17181C"/><rect x="101" y="29" width="17" height="1" fill="#17181C"/><rect x="124" y="29" width="17" height="1" fill="#17181C"/><rect x="146" y="29" width="3" height="1" fill="#17181C"/><rect x="161" y="29" width="3" height="1" fill="#17181C"/><rect x="170" y="29" width="3" height="1" fill="#17181C"/><rect x="185" y="29" width="3" height="1" fill="#17181C"/><rect x="192" y="29" width="4" height="1" fill="#17181C"/><rect x="208" y="29" width="4" height="1" fill="#17181C"/><rect x="216" y="29" width="3" height="1" fill="#17181C"/><rect x="231" y="29" width="3" height="1" fill="#17181C"/><rect x="6" y="30" width="64" height="1" fill="#17181C"/><rect x="74" y="30" width="3" height="1" fill="#17181C"/><rect x="84" y="30" width="4" height="1" fill="#17181C"/><rect x="94" y="30" width="3" height="1" fill="#17181C"/><rect x="101" y="30" width="16" height="1" fill="#17181C"/><rect x="124" y="30" width="17" height="1" fill="#17181C"/><rect x="146" y="30" width="3" height="1" fill="#17181C"/><rect x="161" y="30" width="4" height="1" fill="#17181C"/><rect x="170" y="30" width="3" height="1" fill="#17181C"/><rect x="185" y="30" width="3" height="1" fill="#17181C"/><rect x="192" y="30" width="3" height="1" fill="#17181C"/><rect x="209" y="30" width="3" height="1" fill="#17181C"/><rect x="216" y="30" width="3" height="1" fill="#17181C"/><rect x="231" y="30" width="3" height="1" fill="#17181C"/><rect x="18" y="31" width="25" height="1" fill="#17181C"/><rect x="53" y="31" width="17" height="1" fill="#17181C"/><rect x="74" y="31" width="3" height="1" fill="#17181C"/><rect x="84" y="31" width="4" height="1" fill="#17181C"/><rect x="94" y="31" width="3" height="1" fill="#17181C"/><rect x="101" y="31" width="14" height="1" fill="#17181C"/><rect x="124" y="31" width="17" height="1" fill="#17181C"/><rect x="146" y="31" width="3" height="1" fill="#17181C"/><rect x="161" y="31" width="5" height="1" fill="#17181C"/><rect x="170" y="31" width="3" height="1" fill="#17181C"/><rect x="185" y="31" width="3" height="1" fill="#17181C"/><rect x="192" y="31" width="3" height="1" fill="#17181C"/><rect x="209" y="31" width="3" height="1" fill="#17181C"/><rect x="216" y="31" width="3" height="1" fill="#17181C"/><rect x="231" y="31" width="3" height="1" fill="#17181C"/><rect x="18" y="32" width="25" height="1" fill="#17181C"/><rect x="18" y="33" width="25" height="1" fill="#17181C"/><rect x="18" y="34" width="25" height="1" fill="#17181C"/><rect x="18" y="35" width="25" height="1" fill="#17181C"/><rect x="18" y="36" width="25" height="1" fill="#17181C"/></svg>