<svg width="84" height="30" viewBox="0 0 84 30" fill="none" xmlns="http://www.w3.org/2000/svg"><rect x="17" y="4" width="9" height="1" fill="#F1ECEC"/><rect x="17" y="5" width="9" height="1" fill="#F1ECEC"/><rect x="17" y="6" width="9" height="1" fill="#F1ECEC"/><rect x="37" y="6" width="13" height="1" fill="#F1ECEC"/><rect x="53" y="6" width="13" height="1" fill="#F1ECEC"/><rect x="69" y="6" width="3" height="1" fill="#F1ECEC"/><rect x="80" y="6" width="2" height="1" fill="#F1ECEC"/><rect x="17" y="7" width="9" height="1" fill="#F1ECEC"/><rect x="37" y="7" width="13" height="1" fill="#F1ECEC"/><rect x="53" y="7" width="13" height="1" fill="#F1ECEC"/><rect x="69" y="7" width="3" height="1" fill="#F1ECEC"/><rect x="80" y="7" width="2" height="1" fill="#F1ECEC"/><rect x="8" y="8" width="27" height="1" fill="#F1ECEC"/><rect x="47" y="8" width="3" height="1" fill="#F1ECEC"/><rect x="53" y="8" width="2" height="1" fill="#F1ECEC"/><rect x="69" y="8" width="4" height="1" fill="#F1ECEC"/><rect x="80" y="8" width="2" height="1" fill="#F1ECEC"/><rect x="8" y="9" width="27" height="1" fill="#F1ECEC"/><rect x="46" y="9" width="3" height="1" fill="#F1ECEC"/><rect x="53" y="9" width="2" height="1" fill="#F1ECEC"/><rect x="69" y="9" width="5" height="1" fill="#F1ECEC"/><rect x="80" y="9" width="2" height="1" fill="#F1ECEC"/><rect x="8" y="10" width="27" height="1" fill="#F1ECEC"/><rect x="45" y="10" width="3" height="1" fill="#F1ECEC"/><rect x="53" y="10" width="2" height="1" fill="#F1ECEC"/><rect x="69" y="10" width="2" height="1" fill="#F1ECEC"/><rect x="72" y="10" width="2" height="1" fill="#F1ECEC"/><rect x="80" y="10" width="2" height="1" fill="#F1ECEC"/><rect x="8" y="11" width="27" height="1" fill="#F1ECEC"/><rect x="44" y="11" width="3" height="1" fill="#F1ECEC"/><rect x="53" y="11" width="2" height="1" fill="#F1ECEC"/><rect x="69" y="11" width="2" height="1" fill="#F1ECEC"/><rect x="73" y="11" width="2" height="1" fill="#F1ECEC"/><rect x="80" y="11" width="2" height="1" fill="#F1ECEC"/><rect x="4" y="12" width="35" height="1" fill="#F1ECEC"/><rect x="44" y="12" width="3" height="1" fill="#F1ECEC"/><rect x="53" y="12" width="2" height="1" fill="#F1ECEC"/><rect x="69" y="12" width="2" height="1" fill="#F1ECEC"/><rect x="73" y="12" width="2" height="1" fill="#F1ECEC"/><rect x="80" y="12" width="2" height="1" fill="#F1ECEC"/><rect x="4" y="13" width="35" height="1" fill="#F1ECEC"/><rect x="43" y="13" width="3" height="1" fill="#F1ECEC"/><rect x="53" y="13" width="2" height="1" fill="#F1ECEC"/><rect x="69" y="13" width="2" height="1" fill="#F1ECEC"/><rect x="74" y="13" width="2" height="1" fill="#F1ECEC"/><rect x="80" y="13" width="2" height="1" fill="#F1ECEC"/><rect x="4" y="14" width="35" height="1" fill="#F1ECEC"/><rect x="42" y="14" width="3" height="1" fill="#F1ECEC"/><rect x="53" y="14" width="12" height="1" fill="#F1ECEC"/><rect x="69" y="14" width="2" height="1" fill="#F1ECEC"/><rect x="74" y="14" width="2" height="1" fill="#F1ECEC"/><rect x="80" y="14" width="2" height="1" fill="#F1ECEC"/><rect x="4" y="15" width="35" height="1" fill="#F1ECEC"/><rect x="41" y="15" width="3" height="1" fill="#F1ECEC"/><rect x="53" y="15" width="12" height="1" fill="#F1ECEC"/><rect x="69" y="15" width="2" height="1" fill="#F1ECEC"/><rect x="75" y="15" width="2" height="1" fill="#F1ECEC"/><rect x="80" y="15" width="2" height="1" fill="#F1ECEC"/><rect x="4" y="16" width="35" height="1" fill="#F1ECEC"/><rect x="41" y="16" width="3" height="1" fill="#F1ECEC"/><rect x="53" y="16" width="2" height="1" fill="#F1ECEC"/><rect x="69" y="16" width="2" height="1" fill="#F1ECEC"/><rect x="76" y="16" width="2" height="1" fill="#F1ECEC"/><rect x="80" y="16" width="2" height="1" fill="#F1ECEC"/><rect x="4" y="17" width="35" height="1" fill="#F1ECEC"/><rect x="40" y="17" width="3" height="1" fill="#F1ECEC"/><rect x="53" y="17" width="2" height="1" fill="#F1ECEC"/><rect x="69" y="17" width="2" height="1" fill="#F1ECEC"/><rect x="76" y="17" width="2" height="1" fill="#F1ECEC"/><rect x="80" y="17" width="2" height="1" fill="#F1ECEC"/><rect x="4" y="18" width="38" height="1" fill="#F1ECEC"/><rect x="53" y="18" width="2" height="1" fill="#F1ECEC"/><rect x="69" y="18" width="2" height="1" fill="#F1ECEC"/><rect x="77" y="18" width="2" height="1" fill="#F1ECEC"/><rect x="80" y="18" width="2" height="1" fill="#F1ECEC"/><rect x="4" y="19" width="37" height="1" fill="#F1ECEC"/><rect x="53" y="19" width="2" height="1" fill="#F1ECEC"/><rect x="69" y="19" width="2" height="1" fill="#F1ECEC"/><rect x="77" y="19" width="2" height="1" fill="#F1ECEC"/><rect x="80" y="19" width="2" height="1" fill="#F1ECEC"/><rect x="4" y="20" width="37" height="1" fill="#F1ECEC"/><rect x="53" y="20" width="2" height="1" fill="#F1ECEC"/><rect x="69" y="20" width="2" height="1" fill="#F1ECEC"/><rect x="78" y="20" width="4" height="1" fill="#F1ECEC"/><rect x="4" y="21" width="36" height="1" fill="#F1ECEC"/><rect x="53" y="21" width="2" height="1" fill="#F1ECEC"/><rect x="69" y="21" width="2" height="1" fill="#F1ECEC"/><rect x="78" y="21" width="4" height="1" fill="#F1ECEC"/><rect x="12" y="22" width="19" height="1" fill="#F1ECEC"/><rect x="37" y="22" width="13" height="1" fill="#F1ECEC"/><rect x="53" y="22" width="13" height="1" fill="#F1ECEC"/><rect x="69" y="22" width="2" height="1" fill="#F1ECEC"/><rect x="79" y="22" width="3" height="1" fill="#F1ECEC"/><rect x="12" y="23" width="19" height="1" fill="#F1ECEC"/><rect x="37" y="23" width="13" height="1" fill="#F1ECEC"/><rect x="53" y="23" width="13" height="1" fill="#F1ECEC"/><rect x="69" y="23" width="2" height="1" fill="#F1ECEC"/><rect x="80" y="23" width="2" height="1" fill="#F1ECEC"/><rect x="12" y="24" width="19" height="1" fill="#F1ECEC"/><rect x="12" y="25" width="19" height="1" fill="#F1ECEC"/></svg>