<svg xmlns="http://www.w3.org/2000/svg" width="84" height="30" viewBox="0 0 84 30" fill="none" role="img" aria-labelledby="title">
  <title id="title">EmberHarmony Zen mark</title>
  <defs>
    <radialGradient id="mark-bg" cx="50%" cy="58%" r="75%">
      <stop offset="0" stop-color="#2a1711"/>
      <stop offset="1" stop-color="#151111"/>
    </radialGradient>
    <linearGradient id="flame-a" x1="42" x2="42" y1="7" y2="24.5">
      <stop offset="0" stop-color="#ff5a42"/>
      <stop offset=".58" stop-color="#ff7a28"/>
      <stop offset="1" stop-color="#b01605"/>
    </linearGradient>
    <linearGradient id="flame-b" x1="42" x2="42" y1="9" y2="23.2">
      <stop offset="0" stop-color="#ffb24a"/>
      <stop offset=".62" stop-color="#ff762f"/>
      <stop offset="1" stop-color="#de2d11"/>
    </linearGradient>
    <linearGradient id="flame-c" x1="42" x2="42" y1="16" y2="23">
      <stop offset="0" stop-color="#ff5b35"/>
      <stop offset="1" stop-color="#a90f00"/>
    </linearGradient>
  </defs>
  <rect x="28" y="1" width="28" height="28" rx="5" fill="url(#mark-bg)"/>
  <path fill="url(#flame-a)" d="M42 6.3c-2.1 2.4-3.3 4.4-3.3 6.7-1.1-1.4-1.5-3-1.2-4.9-3.2 3.8-4.1 7.1-2.7 10.2-1.9-1.3-2.6-3.3-2.2-5.9-3 3.5-3.3 8.2-.7 11.8 2 2.7 5.5 4.1 10.1 4.1s8.1-1.4 10.1-4.1c2.6-3.6 2.3-8.3-.7-11.8.4 2.6-.3 4.6-2.2 5.9 1.4-3.1.5-6.4-2.7-10.2.3 1.9-.1 3.5-1.2 4.9 0-2.3-1.2-4.3-3.3-6.7Z"/>
  <path fill="#171212" d="M42 8.3c-1.6 1.9-2.4 3.5-2.4 5.1 0 1.1.3 2 .9 2.9-1.8-1.7-2.5-3.6-2.1-6-2.5 3.3-2.3 6.8.8 10.4-1.8-.9-3-2.4-3.6-4.5-1.2 3-.3 5.6 2.7 8.1-2.2-.7-3.9-1.9-5.2-3.6 1 3.2 4 5.4 8.9 5.4s7.9-2.2 8.9-5.4c-1.3 1.7-3 2.9-5.2 3.6 3-2.5 3.9-5.1 2.7-8.1-.6 2.1-1.8 3.6-3.6 4.5 3.1-3.6 3.3-7.1.8-10.4.4 2.4-.3 4.3-2.1 6 .6-.9.9-1.8.9-2.9 0-1.6-.8-3.2-2.4-5.1Z"/>
  <path fill="url(#flame-b)" d="M42 9c-1.5 2-2 3.6-1.7 5.2.3 1.2 1.1 2.2 2.3 3.2-2.4-.7-4.2-2.4-5.3-5-1 2.7-.2 5.1 2.4 7.1-1.9.2-3.5-.7-4.7-2.5.5 4.3 2.9 7.2 7 7.2s6.5-2.9 7-7.2c-1.2 1.8-2.8 2.7-4.7 2.5 2.6-2 3.4-4.4 2.4-7.1-1.1 2.6-2.9 4.3-5.3 5 1.2-1 2-2 2.3-3.2.3-1.6-.2-3.2-1.7-5.2Z"/>
  <path fill="#21110c" d="M42 12.2c-.3 3.5 3.8 3.9 3.8 7.6 0 1.1-.5 2.2-1.5 3.2 2.3-.8 3.7-2.7 3.7-5.1 0-1.7-.7-3.5-2.1-5.3-.2 1.8-1.2 3.2-3 4.4.5-2.1.2-3.7-.9-4.8Z"/>
  <path fill="url(#flame-c)" d="M42 14.7c.9 1.7.9 3.3 0 4.7 1-.4 2-1.1 2.7-2.3.8 2.9-.4 5.8-2.7 5.8s-3.5-2.9-2.7-5.8c.7 1.2 1.7 1.9 2.7 2.3-.9-1.4-.9-3 0-4.7Z"/>
</svg>
