<svg width="24" height="24" viewBox="0 0 24 24" fill="none" xmlns="http://www.w3.org/2000/svg"><rect x="13" y="3" width="8" height="1" fill=""/><rect x="13" y="4" width="8" height="1" fill=""/><rect x="13" y="5" width="8" height="1" fill=""/><rect x="6" y="6" width="18" height="1" fill=""/><rect x="6" y="7" width="18" height="1" fill=""/><rect x="6" y="8" width="18" height="1" fill=""/><rect x="6" y="9" width="18" height="1" fill=""/><rect x="3" y="10" width="21" height="1" fill=""/><rect x="3" y="11" width="21" height="1" fill=""/><rect x="3" y="12" width="21" height="1" fill=""/><rect x="3" y="13" width="21" height="1" fill=""/><rect x="3" y="14" width="21" height="1" fill=""/><rect x="3" y="15" width="21" height="1" fill=""/><rect x="3" y="16" width="21" height="1" fill=""/><rect x="3" y="17" width="21" height="1" fill=""/><rect x="10" y="18" width="14" height="1" fill=""/><rect x="10" y="19" width="14" height="1" fill=""/><rect x="10" y="20" width="14" height="1" fill=""/></svg>