<svg xmlns="http://www.w3.org/2000/svg" width="177" height="24" viewBox="0 0 177 24" fill="none" role="img" aria-labelledby="title">
  <title id="title">EmberHarmony</title>
  <defs>
    <radialGradient id="mark-bg" cx="50%" cy="58%" r="75%">
      <stop offset="0" stop-color="#2a1711"/>
      <stop offset="1" stop-color="#151111"/>
    </radialGradient>
    <linearGradient id="flame-a" x1="12" x2="12" y1="6" y2="19.5">
      <stop offset="0" stop-color="#ff5a42"/>
      <stop offset=".58" stop-color="#ff7a28"/>
      <stop offset="1" stop-color="#b01605"/>
    </linearGradient>
    <linearGradient id="flame-b" x1="12" x2="12" y1="7.4" y2="18.6">
      <stop offset="0" stop-color="#ffb24a"/>
      <stop offset=".62" stop-color="#ff762f"/>
      <stop offset="1" stop-color="#de2d11"/>
    </linearGradient>
    <linearGradient id="flame-c" x1="12" x2="12" y1="12.8" y2="18.7">
      <stop offset="0" stop-color="#ff5b35"/>
      <stop offset="1" stop-color="#a90f00"/>
    </linearGradient>
  </defs>
  <rect x="2" y="2" width="20" height="20" rx="3.6" fill="url(#mark-bg)"/>
  <path fill="url(#flame-a)" d="M12 5.6c-1.5 1.7-2.3 3.1-2.3 4.8-.8-1-.9-2.2-.8-3.5-2.3 2.7-2.9 5-1.9 7.1-1.3-.9-1.9-2.3-1.5-4.1-2.1 2.5-2.3 5.8-.5 8.3 1.4 1.9 3.9 2.9 7 2.9s5.6-1 7-2.9c1.8-2.5 1.6-5.8-.5-8.3.4 1.8-.2 3.2-1.5 4.1 1-2.1.4-4.4-1.9-7.1.1 1.3 0 2.5-.8 3.5 0-1.7-.8-3.1-2.3-4.8Z"/>
  <path fill="#171212" d="M12 7c-1.1 1.3-1.7 2.5-1.7 3.6 0 .8.2 1.4.7 2-1.3-1.1-1.8-2.5-1.5-4.2-1.8 2.3-1.6 4.7.5 7.2-1.3-.6-2.1-1.7-2.5-3.2-.8 2.1-.2 3.9 1.9 5.6-1.5-.5-2.8-1.3-3.7-2.5.7 2.2 2.8 3.8 6.3 3.8s5.6-1.6 6.3-3.8c-.9 1.2-2.2 2-3.7 2.5 2.1-1.7 2.7-3.5 1.9-5.6-.4 1.5-1.2 2.6-2.5 3.2 2.1-2.5 2.3-4.9.5-7.2.3 1.7-.2 3.1-1.5 4.2.5-.6.7-1.2.7-2 .1-1.1-.6-2.3-1.7-3.6Z"/>
  <path fill="url(#flame-b)" d="M12 7.5c-1.1 1.4-1.5 2.6-1.2 3.7.2.8.8 1.5 1.7 2.3-1.7-.5-3-1.7-3.8-3.5-.7 1.9-.1 3.6 1.7 5-1.4.1-2.5-.5-3.4-1.8.3 3.1 2 5.1 5 5.1s4.7-2 5-5.1c-.9 1.3-2 1.9-3.4 1.8 1.8-1.4 2.4-3.1 1.7-5-.8 1.8-2.1 3-3.8 3.5.9-.8 1.5-1.5 1.7-2.3.3-1.1-.1-2.3-1.2-3.7Z"/>
  <path fill="#21110c" d="M12 9.7c-.2 2.5 2.8 2.8 2.8 5.4 0 .8-.4 1.5-1.1 2.2 1.6-.6 2.6-1.9 2.6-3.6 0-1.2-.5-2.5-1.5-3.8-.2 1.2-.9 2.3-2.1 3.1.4-1.5.2-2.6-.7-3.3Z"/>
  <path fill="url(#flame-c)" d="M12 11.5c.7 1.2.7 2.3 0 3.3.8-.3 1.4-.8 1.9-1.6.6 2-.3 4-1.9 4s-2.5-2-1.9-4c.5.8 1.1 1.3 1.9 1.6-.7-1-.7-2.1 0-3.3Z"/>
  <text x="30" y="18" fill="#fc533a" font-family="Inter, Avenir, Helvetica, Arial, sans-serif" font-size="16" font-weight="800" letter-spacing="0" textLength="46" lengthAdjust="spacingAndGlyphs">Ember</text>
  <text x="78" y="18" fill="#f1ecec" font-family="Inter, Avenir, Helvetica, Arial, sans-serif" font-size="16" font-weight="800" letter-spacing="0" textLength="97" lengthAdjust="spacingAndGlyphs">Harmony</text>
</svg>
