<svg width="177" height="24" viewBox="0 0 177 24" fill="none" xmlns="http://www.w3.org/2000/svg"><rect x="4" y="5" width="10" height="1" fill="#F1ECEC"/><rect x="16" y="5" width="3" height="1" fill="#F1ECEC"/><rect x="27" y="5" width="2" height="1" fill="#F1ECEC"/><rect x="32" y="5" width="8" height="1" fill="#F1ECEC"/><rect x="46" y="5" width="10" height="1" fill="#F1ECEC"/><rect x="59" y="5" width="9" height="1" fill="#F1ECEC"/><rect x="73" y="5" width="1" height="1" fill="#F1ECEC"/><rect x="81" y="5" width="2" height="1" fill="#F1ECEC"/><rect x="90" y="5" width="3" height="1" fill="#F1ECEC"/><rect x="100" y="5" width="9" height="1" fill="#F1ECEC"/><rect x="113" y="5" width="3" height="1" fill="#F1ECEC"/><rect x="124" y="5" width="2" height="1" fill="#F1ECEC"/><rect x="133" y="5" width="5" height="1" fill="#F1ECEC"/><rect x="144" y="5" width="3" height="1" fill="#F1ECEC"/><rect x="154" y="5" width="1" height="1" fill="#F1ECEC"/><rect x="158" y="5" width="2" height="1" fill="#F1ECEC"/><rect x="167" y="5" width="2" height="1" fill="#F1ECEC"/><rect x="4" y="6" width="10" height="1" fill="#F1ECEC"/><rect x="16" y="6" width="4" height="1" fill="#F1ECEC"/><rect x="26" y="6" width="3" height="1" fill="#F1ECEC"/><rect x="32" y="6" width="10" height="1" fill="#F1ECEC"/><rect x="46" y="6" width="10" height="1" fill="#F1ECEC"/><rect x="59" y="6" width="10" height="1" fill="#F1ECEC"/><rect x="73" y="6" width="1" height="1" fill="#F1ECEC"/><rect x="81" y="6" width="2" height="1" fill="#F1ECEC"/><rect x="90" y="6" width="3" height="1" fill="#F1ECEC"/><rect x="100" y="6" width="10" height="1" fill="#F1ECEC"/><rect x="113" y="6" width="4" height="1" fill="#F1ECEC"/><rect x="123" y="6" width="3" height="1" fill="#F1ECEC"/><rect x="131" y="6" width="2" height="1" fill="#F1ECEC"/><rect x="138" y="6" width="2" height="1" fill="#F1ECEC"/><rect x="144" y="6" width="4" height="1" fill="#F1ECEC"/><rect x="154" y="6" width="1" height="1" fill="#F1ECEC"/><rect x="158" y="6" width="2" height="1" fill="#F1ECEC"/><rect x="167" y="6" width="2" height="1" fill="#F1ECEC"/><rect x="4" y="7" width="1" height="1" fill="#F1ECEC"/><rect x="16" y="7" width="4" height="1" fill="#F1ECEC"/><rect x="26" y="7" width="3" height="1" fill="#F1ECEC"/><rect x="32" y="7" width="2" height="1" fill="#F1ECEC"/><rect x="40" y="7" width="2" height="1" fill="#F1ECEC"/><rect x="46" y="7" width="1" height="1" fill="#F1ECEC"/><rect x="59" y="7" width="2" height="1" fill="#F1ECEC"/><rect x="67" y="7" width="2" height="1" fill="#F1ECEC"/><rect x="73" y="7" width="1" height="1" fill="#F1ECEC"/><rect x="81" y="7" width="2" height="1" fill="#F1ECEC"/><rect x="89" y="7" width="4" height="1" fill="#F1ECEC"/><rect x="100" y="7" width="2" height="1" fill="#F1ECEC"/><rect x="108" y="7" width="2" height="1" fill="#F1ECEC"/><rect x="113" y="7" width="4" height="1" fill="#F1ECEC"/><rect x="123" y="7" width="3" height="1" fill="#F1ECEC"/><rect x="130" y="7" width="2" height="1" fill="#F1ECEC"/><rect x="139" y="7" width="2" height="1" fill="#F1ECEC"/><rect x="144" y="7" width="4" height="1" fill="#F1ECEC"/><rect x="154" y="7" width="1" height="1" fill="#F1ECEC"/><rect x="159" y="7" width="2" height="1" fill="#F1ECEC"/><rect x="166" y="7" width="2" height="1" fill="#F1ECEC"/><rect x="4" y="8" width="1" height="1" fill="#F1ECEC"/><rect x="16" y="8" width="4" height="1" fill="#F1ECEC"/><rect x="26" y="8" width="3" height="1" fill="#F1ECEC"/><rect x="32" y="8" width="2" height="1" fill="#F1ECEC"/><rect x="40" y="8" width="2" height="1" fill="#F1ECEC"/><rect x="46" y="8" width="1" height="1" fill="#F1ECEC"/><rect x="59" y="8" width="2" height="1" fill="#F1ECEC"/><rect x="68" y="8" width="1" height="1" fill="#F1ECEC"/><rect x="73" y="8" width="1" height="1" fill="#F1ECEC"/><rect x="81" y="8" width="2" height="1" fill="#F1ECEC"/><rect x="89" y="8" width="2" height="1" fill="#F1ECEC"/><rect x="92" y="8" width="2" height="1" fill="#F1ECEC"/><rect x="100" y="8" width="2" height="1" fill="#F1ECEC"/><rect x="109" y="8" width="1" height="1" fill="#F1ECEC"/><rect x="113" y="8" width="4" height="1" fill="#F1ECEC"/><rect x="123" y="8" width="3" height="1" fill="#F1ECEC"/><rect x="130" y="8" width="1" height="1" fill="#F1ECEC"/><rect x="139" y="8" width="2" height="1" fill="#F1ECEC"/><rect x="144" y="8" width="5" height="1" fill="#F1ECEC"/><rect x="154" y="8" width="1" height="1" fill="#F1ECEC"/><rect x="159" y="8" width="3" height="1" fill="#F1ECEC"/><rect x="165" y="8" width="2" height="1" fill="#F1ECEC"/><rect x="4" y="9" width="1" height="1" fill="#F1ECEC"/><rect x="16" y="9" width="2" height="1" fill="#F1ECEC"/><rect x="19" y="9" width="2" height="1" fill="#F1ECEC"/><rect x="25" y="9" width="2" height="1" fill="#F1ECEC"/><rect x="28" y="9" width="1" height="1" fill="#F1ECEC"/><rect x="32" y="9" width="2" height="1" fill="#F1ECEC"/><rect x="40" y="9" width="2" height="1" fill="#F1ECEC"/><rect x="46" y="9" width="1" height="1" fill="#F1ECEC"/><rect x="59" y="9" width="2" height="1" fill="#F1ECEC"/><rect x="67" y="9" width="2" height="1" fill="#F1ECEC"/><rect x="73" y="9" width="1" height="1" fill="#F1ECEC"/><rect x="81" y="9" width="2" height="1" fill="#F1ECEC"/><rect x="89" y="9" width="1" height="1" fill="#F1ECEC"/><rect x="92" y="9" width="2" height="1" fill="#F1ECEC"/><rect x="100" y="9" width="2" height="1" fill="#F1ECEC"/><rect x="108" y="9" width="2" height="1" fill="#F1ECEC"/><rect x="113" y="9" width="2" height="1" fill="#F1ECEC"/><rect x="116" y="9" width="2" height="1" fill="#F1ECEC"/><rect x="122" y="9" width="2" height="1" fill="#F1ECEC"/><rect x="125" y="9" width="1" height="1" fill="#F1ECEC"/><rect x="129" y="9" width="2" height="1" fill="#F1ECEC"/><rect x="140" y="9" width="2" height="1" fill="#F1ECEC"/><rect x="144" y="9" width="2" height="1" fill="#F1ECEC"/><rect x="147" y="9" width="2" height="1" fill="#F1ECEC"/><rect x="154" y="9" width="1" height="1" fill="#F1ECEC"/><rect x="160" y="9" width="2" height="1" fill="#F1ECEC"/><rect x="165" y="9" width="2" height="1" fill="#F1ECEC"/><rect x="4" y="10" width="1" height="1" fill="#F1ECEC"/><rect x="16" y="10" width="2" height="1" fill="#F1ECEC"/><rect x="19" y="10" width="2" height="1" fill="#F1ECEC"/><rect x="25" y="10" width="2" height="1" fill="#F1ECEC"/><rect x="28" y="10" width="1" height="1" fill="#F1ECEC"/><rect x="32" y="10" width="2" height="1" fill="#F1ECEC"/><rect x="40" y="10" width="2" height="1" fill="#F1ECEC"/><rect x="46" y="10" width="1" height="1" fill="#F1ECEC"/><rect x="59" y="10" width="2" height="1" fill="#F1ECEC"/><rect x="67" y="10" width="2" height="1" fill="#F1ECEC"/><rect x="73" y="10" width="1" height="1" fill="#F1ECEC"/><rect x="81" y="10" width="2" height="1" fill="#F1ECEC"/><rect x="88" y="10" width="2" height="1" fill="#F1ECEC"/><rect x="93" y="10" width="1" height="1" fill="#F1ECEC"/><rect x="100" y="10" width="2" height="1" fill="#F1ECEC"/><rect x="108" y="10" width="2" height="1" fill="#F1ECEC"/><rect x="113" y="10" width="2" height="1" fill="#F1ECEC"/><rect x="116" y="10" width="2" height="1" fill="#F1ECEC"/><rect x="122" y="10" width="2" height="1" fill="#F1ECEC"/><rect x="125" y="10" width="1" height="1" fill="#F1ECEC"/><rect x="129" y="10" width="2" height="1" fill="#F1ECEC"/><rect x="140" y="10" width="2" height="1" fill="#F1ECEC"/><rect x="144" y="10" width="2" height="1" fill="#F1ECEC"/><rect x="148" y="10" width="2" height="1" fill="#F1ECEC"/><rect x="154" y="10" width="1" height="1" fill="#F1ECEC"/><rect x="161" y="10" width="2" height="1" fill="#F1ECEC"/><rect x="164" y="10" width="2" height="1" fill="#F1ECEC"/><rect x="4" y="11" width="9" height="1" fill="#F1ECEC"/><rect x="16" y="11" width="2" height="1" fill="#F1ECEC"/><rect x="20" y="11" width="1" height="1" fill="#F1ECEC"/><rect x="25" y="11" width="1" height="1" fill="#F1ECEC"/><rect x="28" y="11" width="1" height="1" fill="#F1ECEC"/><rect x="32" y="11" width="9" height="1" fill="#F1ECEC"/><rect x="46" y="11" width="9" height="1" fill="#F1ECEC"/><rect x="59" y="11" width="9" height="1" fill="#F1ECEC"/><rect x="73" y="11" width="10" height="1" fill="#F1ECEC"/><rect x="88" y="11" width="2" height="1" fill="#F1ECEC"/><rect x="93" y="11" width="2" height="1" fill="#F1ECEC"/><rect x="100" y="11" width="9" height="1" fill="#F1ECEC"/><rect x="113" y="11" width="2" height="1" fill="#F1ECEC"/><rect x="117" y="11" width="1" height="1" fill="#F1ECEC"/><rect x="122" y="11" width="1" height="1" fill="#F1ECEC"/><rect x="125" y="11" width="1" height="1" fill="#F1ECEC"/><rect x="129" y="11" width="2" height="1" fill="#F1ECEC"/><rect x="140" y="11" width="2" height="1" fill="#F1ECEC"/><rect x="144" y="11" width="2" height="1" fill="#F1ECEC"/><rect x="148" y="11" width="3" height="1" fill="#F1ECEC"/><rect x="154" y="11" width="1" height="1" fill="#F1ECEC"/><rect x="161" y="11" width="5" height="1" fill="#F1ECEC"/><rect x="4" y="12" width="9" height="1" fill="#F1ECEC"/><rect x="16" y="12" width="2" height="1" fill="#F1ECEC"/><rect x="20" y="12" width="2" height="1" fill="#F1ECEC"/><rect x="24" y="12" width="2" height="1" fill="#F1ECEC"/><rect x="28" y="12" width="1" height="1" fill="#F1ECEC"/><rect x="32" y="12" width="10" height="1" fill="#F1ECEC"/><rect x="46" y="12" width="9" height="1" fill="#F1ECEC"/><rect x="59" y="12" width="9" height="1" fill="#F1ECEC"/><rect x="73" y="12" width="10" height="1" fill="#F1ECEC"/><rect x="88" y="12" width="1" height="1" fill="#F1ECEC"/><rect x="93" y="12" width="2" height="1" fill="#F1ECEC"/><rect x="100" y="12" width="9" height="1" fill="#F1ECEC"/><rect x="113" y="12" width="2" height="1" fill="#F1ECEC"/><rect x="117" y="12" width="2" height="1" fill="#F1ECEC"/><rect x="121" y="12" width="2" height="1" fill="#F1ECEC"/><rect x="125" y="12" width="1" height="1" fill="#F1ECEC"/><rect x="129" y="12" width="2" height="1" fill="#F1ECEC"/><rect x="140" y="12" width="2" height="1" fill="#F1ECEC"/><rect x="144" y="12" width="2" height="1" fill="#F1ECEC"/><rect x="149" y="12" width="2" height="1" fill="#F1ECEC"/><rect x="154" y="12" width="1" height="1" fill="#F1ECEC"/><rect x="162" y="12" width="3" height="1" fill="#F1ECEC"/><rect x="4" y="13" width="1" height="1" fill="#F1ECEC"/><rect x="16" y="13" width="2" height="1" fill="#F1ECEC"/><rect x="20" y="13" width="2" height="1" fill="#F1ECEC"/><rect x="24" y="13" width="2" height="1" fill="#F1ECEC"/><rect x="28" y="13" width="1" height="1" fill="#F1ECEC"/><rect x="32" y="13" width="2" height="1" fill="#F1ECEC"/><rect x="40" y="13" width="3" height="1" fill="#F1ECEC"/><rect x="46" y="13" width="1" height="1" fill="#F1ECEC"/><rect x="59" y="13" width="2" height="1" fill="#F1ECEC"/><rect x="67" y="13" width="2" height="1" fill="#F1ECEC"/><rect x="73" y="13" width="1" height="1" fill="#F1ECEC"/><rect x="81" y="13" width="2" height="1" fill="#F1ECEC"/><rect x="87" y="13" width="8" height="1" fill="#F1ECEC"/><rect x="100" y="13" width="2" height="1" fill="#F1ECEC"/><rect x="108" y="13" width="2" height="1" fill="#F1ECEC"/><rect x="113" y="13" width="2" height="1" fill="#F1ECEC"/><rect x="117" y="13" width="2" height="1" fill="#F1ECEC"/><rect x="121" y="13" width="2" height="1" fill="#F1ECEC"/><rect x="125" y="13" width="1" height="1" fill="#F1ECEC"/><rect x="129" y="13" width="2" height="1" fill="#F1ECEC"/><rect x="140" y="13" width="2" height="1" fill="#F1ECEC"/><rect x="144" y="13" width="2" height="1" fill="#F1ECEC"/><rect x="150" y="13" width="2" height="1" fill="#F1ECEC"/><rect x="154" y="13" width="1" height="1" fill="#F1ECEC"/><rect x="162" y="13" width="3" height="1" fill="#F1ECEC"/><rect x="4" y="14" width="1" height="1" fill="#F1ECEC"/><rect x="16" y="14" width="2" height="1" fill="#F1ECEC"/><rect x="21" y="14" width="1" height="1" fill="#F1ECEC"/><rect x="24" y="14" width="1" height="1" fill="#F1ECEC"/><rect x="28" y="14" width="1" height="1" fill="#F1ECEC"/><rect x="32" y="14" width="2" height="1" fill="#F1ECEC"/><rect x="41" y="14" width="2" height="1" fill="#F1ECEC"/><rect x="46" y="14" width="1" height="1" fill="#F1ECEC"/><rect x="59" y="14" width="2" height="1" fill="#F1ECEC"/><rect x="67" y="14" width="2" height="1" fill="#F1ECEC"/><rect x="73" y="14" width="1" height="1" fill="#F1ECEC"/><rect x="81" y="14" width="2" height="1" fill="#F1ECEC"/><rect x="87" y="14" width="9" height="1" fill="#F1ECEC"/><rect x="100" y="14" width="2" height="1" fill="#F1ECEC"/><rect x="108" y="14" width="2" height="1" fill="#F1ECEC"/><rect x="113" y="14" width="2" height="1" fill="#F1ECEC"/><rect x="118" y="14" width="1" height="1" fill="#F1ECEC"/><rect x="121" y="14" width="1" height="1" fill="#F1ECEC"/><rect x="125" y="14" width="1" height="1" fill="#F1ECEC"/><rect x="129" y="14" width="2" height="1" fill="#F1ECEC"/><rect x="140" y="14" width="2" height="1" fill="#F1ECEC"/><rect x="144" y="14" width="2" height="1" fill="#F1ECEC"/><rect x="150" y="14" width="3" height="1" fill="#F1ECEC"/><rect x="154" y="14" width="1" height="1" fill="#F1ECEC"/><rect x="163" y="14" width="1" height="1" fill="#F1ECEC"/><rect x="4" y="15" width="1" height="1" fill="#F1ECEC"/><rect x="16" y="15" width="2" height="1" fill="#F1ECEC"/><rect x="21" y="15" width="4" height="1" fill="#F1ECEC"/><rect x="28" y="15" width="1" height="1" fill="#F1ECEC"/><rect x="32" y="15" width="2" height="1" fill="#F1ECEC"/><rect x="41" y="15" width="2" height="1" fill="#F1ECEC"/><rect x="46" y="15" width="1" height="1" fill="#F1ECEC"/><rect x="59" y="15" width="2" height="1" fill="#F1ECEC"/><rect x="67" y="15" width="2" height="1" fill="#F1ECEC"/><rect x="73" y="15" width="1" height="1" fill="#F1ECEC"/><rect x="81" y="15" width="2" height="1" fill="#F1ECEC"/><rect x="87" y="15" width="1" height="1" fill="#F1ECEC"/><rect x="94" y="15" width="2" height="1" fill="#F1ECEC"/><rect x="100" y="15" width="2" height="1" fill="#F1ECEC"/><rect x="108" y="15" width="2" height="1" fill="#F1ECEC"/><rect x="113" y="15" width="2" height="1" fill="#F1ECEC"/><rect x="118" y="15" width="4" height="1" fill="#F1ECEC"/><rect x="125" y="15" width="1" height="1" fill="#F1ECEC"/><rect x="129" y="15" width="2" height="1" fill="#F1ECEC"/><rect x="139" y="15" width="2" height="1" fill="#F1ECEC"/><rect x="144" y="15" width="2" height="1" fill="#F1ECEC"/><rect x="151" y="15" width="4" height="1" fill="#F1ECEC"/><rect x="163" y="15" width="1" height="1" fill="#F1ECEC"/><rect x="4" y="16" width="1" height="1" fill="#F1ECEC"/><rect x="16" y="16" width="2" height="1" fill="#F1ECEC"/><rect x="21" y="16" width="4" height="1" fill="#F1ECEC"/><rect x="28" y="16" width="1" height="1" fill="#F1ECEC"/><rect x="32" y="16" width="2" height="1" fill="#F1ECEC"/><rect x="40" y="16" width="3" height="1" fill="#F1ECEC"/><rect x="46" y="16" width="1" height="1" fill="#F1ECEC"/><rect x="59" y="16" width="2" height="1" fill="#F1ECEC"/><rect x="67" y="16" width="2" height="1" fill="#F1ECEC"/><rect x="73" y="16" width="1" height="1" fill="#F1ECEC"/><rect x="81" y="16" width="2" height="1" fill="#F1ECEC"/><rect x="86" y="16" width="2" height="1" fill="#F1ECEC"/><rect x="95" y="16" width="2" height="1" fill="#F1ECEC"/><rect x="100" y="16" width="2" height="1" fill="#F1ECEC"/><rect x="108" y="16" width="2" height="1" fill="#F1ECEC"/><rect x="113" y="16" width="2" height="1" fill="#F1ECEC"/><rect x="118" y="16" width="4" height="1" fill="#F1ECEC"/><rect x="125" y="16" width="1" height="1" fill="#F1ECEC"/><rect x="130" y="16" width="2" height="1" fill="#F1ECEC"/><rect x="139" y="16" width="2" height="1" fill="#F1ECEC"/><rect x="144" y="16" width="2" height="1" fill="#F1ECEC"/><rect x="152" y="16" width="3" height="1" fill="#F1ECEC"/><rect x="163" y="16" width="1" height="1" fill="#F1ECEC"/><rect x="4" y="17" width="10" height="1" fill="#F1ECEC"/><rect x="16" y="17" width="2" height="1" fill="#F1ECEC"/><rect x="22" y="17" width="2" height="1" fill="#F1ECEC"/><rect x="28" y="17" width="1" height="1" fill="#F1ECEC"/><rect x="32" y="17" width="10" height="1" fill="#F1ECEC"/><rect x="46" y="17" width="10" height="1" fill="#F1ECEC"/><rect x="59" y="17" width="2" height="1" fill="#F1ECEC"/><rect x="67" y="17" width="2" height="1" fill="#F1ECEC"/><rect x="73" y="17" width="1" height="1" fill="#F1ECEC"/><rect x="81" y="17" width="2" height="1" fill="#F1ECEC"/><rect x="86" y="17" width="2" height="1" fill="#F1ECEC"/><rect x="95" y="17" width="2" height="1" fill="#F1ECEC"/><rect x="100" y="17" width="2" height="1" fill="#F1ECEC"/><rect x="108" y="17" width="2" height="1" fill="#F1ECEC"/><rect x="113" y="17" width="2" height="1" fill="#F1ECEC"/><rect x="119" y="17" width="2" height="1" fill="#F1ECEC"/><rect x="125" y="17" width="1" height="1" fill="#F1ECEC"/><rect x="131" y="17" width="2" height="1" fill="#F1ECEC"/><rect x="138" y="17" width="2" height="1" fill="#F1ECEC"/><rect x="144" y="17" width="2" height="1" fill="#F1ECEC"/><rect x="152" y="17" width="3" height="1" fill="#F1ECEC"/><rect x="163" y="17" width="1" height="1" fill="#F1ECEC"/><rect x="4" y="18" width="10" height="1" fill="#F1ECEC"/><rect x="16" y="18" width="2" height="1" fill="#F1ECEC"/><rect x="22" y="18" width="2" height="1" fill="#F1ECEC"/><rect x="28" y="18" width="1" height="1" fill="#F1ECEC"/><rect x="32" y="18" width="9" height="1" fill="#F1ECEC"/><rect x="46" y="18" width="10" height="1" fill="#F1ECEC"/><rect x="59" y="18" width="2" height="1" fill="#F1ECEC"/><rect x="68" y="18" width="2" height="1" fill="#F1ECEC"/><rect x="73" y="18" width="1" height="1" fill="#F1ECEC"/><rect x="81" y="18" width="2" height="1" fill="#F1ECEC"/><rect x="85" y="18" width="2" height="1" fill="#F1ECEC"/><rect x="95" y="18" width="2" height="1" fill="#F1ECEC"/><rect x="100" y="18" width="2" height="1" fill="#F1ECEC"/><rect x="109" y="18" width="2" height="1" fill="#F1ECEC"/><rect x="113" y="18" width="2" height="1" fill="#F1ECEC"/><rect x="119" y="18" width="2" height="1" fill="#F1ECEC"/><rect x="125" y="18" width="1" height="1" fill="#F1ECEC"/><rect x="133" y="18" width="5" height="1" fill="#F1ECEC"/><rect x="144" y="18" width="2" height="1" fill="#F1ECEC"/><rect x="153" y="18" width="2" height="1" fill="#F1ECEC"/><rect x="163" y="18" width="1" height="1" fill="#F1ECEC"/></svg>