<svg width="234" height="42" viewBox="0 0 234 42" fill="none" xmlns="http://www.w3.org/2000/svg"><rect x="5" y="8" width="17" height="1" fill="#17181C"/><rect x="26" y="8" width="5" height="1" fill="#17181C"/><rect x="44" y="8" width="5" height="1" fill="#17181C"/><rect x="53" y="8" width="14" height="1" fill="#17181C"/><rect x="76" y="8" width="17" height="1" fill="#17181C"/><rect x="98" y="8" width="14" height="1" fill="#17181C"/><rect x="122" y="8" width="3" height="1" fill="#17181C"/><rect x="137" y="8" width="3" height="1" fill="#17181C"/><rect x="152" y="8" width="4" height="1" fill="#17181C"/><rect x="168" y="8" width="14" height="1" fill="#17181C"/><rect x="191" y="8" width="5" height="1" fill="#17181C"/><rect x="209" y="8" width="5" height="1" fill="#17181C"/><rect x="225" y="8" width="7" height="1" fill="#17181C"/><rect x="5" y="9" width="17" height="1" fill="#17181C"/><rect x="26" y="9" width="6" height="1" fill="#17181C"/><rect x="44" y="9" width="5" height="1" fill="#17181C"/><rect x="53" y="9" width="16" height="1" fill="#17181C"/><rect x="76" y="9" width="17" height="1" fill="#17181C"/><rect x="98" y="9" width="16" height="1" fill="#17181C"/><rect x="122" y="9" width="3" height="1" fill="#17181C"/><rect x="137" y="9" width="3" height="1" fill="#17181C"/><rect x="152" y="9" width="5" height="1" fill="#17181C"/><rect x="168" y="9" width="16" height="1" fill="#17181C"/><rect x="191" y="9" width="6" height="1" fill="#17181C"/><rect x="209" y="9" width="5" height="1" fill="#17181C"/><rect x="223" y="9" width="11" height="1" fill="#17181C"/><rect x="5" y="10" width="17" height="1" fill="#17181C"/><rect x="26" y="10" width="6" height="1" fill="#17181C"/><rect x="44" y="10" width="5" height="1" fill="#17181C"/><rect x="53" y="10" width="16" height="1" fill="#17181C"/><rect x="76" y="10" width="17" height="1" fill="#17181C"/><rect x="98" y="10" width="17" height="1" fill="#17181C"/><rect x="122" y="10" width="3" height="1" fill="#17181C"/><rect x="137" y="10" width="3" height="1" fill="#17181C"/><rect x="151" y="10" width="6" height="1" fill="#17181C"/><rect x="168" y="10" width="17" height="1" fill="#17181C"/><rect x="191" y="10" width="6" height="1" fill="#17181C"/><rect x="209" y="10" width="5" height="1" fill="#17181C"/><rect x="221" y="10" width="13" height="1" fill="#17181C"/><rect x="5" y="11" width="3" height="1" fill="#17181C"/><rect x="26" y="11" width="6" height="1" fill="#17181C"/><rect x="43" y="11" width="6" height="1" fill="#17181C"/><rect x="53" y="11" width="4" height="1" fill="#17181C"/><rect x="66" y="11" width="4" height="1" fill="#17181C"/><rect x="76" y="11" width="3" height="1" fill="#17181C"/><rect x="98" y="11" width="3" height="1" fill="#17181C"/><rect x="112" y="11" width="4" height="1" fill="#17181C"/><rect x="122" y="11" width="3" height="1" fill="#17181C"/><rect x="137" y="11" width="3" height="1" fill="#17181C"/><rect x="151" y="11" width="6" height="1" fill="#17181C"/><rect x="168" y="11" width="3" height="1" fill="#17181C"/><rect x="182" y="11" width="4" height="1" fill="#17181C"/><rect x="191" y="11" width="6" height="1" fill="#17181C"/><rect x="208" y="11" width="6" height="1" fill="#17181C"/><rect x="220" y="11" width="6" height="1" fill="#17181C"/><rect x="232" y="11" width="2" height="1" fill="#17181C"/><rect x="5" y="12" width="3" height="1" fill="#17181C"/><rect x="26" y="12" width="7" height="1" fill="#17181C"/><rect x="43" y="12" width="6" height="1" fill="#17181C"/><rect x="53" y="12" width="4" height="1" fill="#17181C"/><rect x="67" y="12" width="3" height="1" fill="#17181C"/><rect x="76" y="12" width="3" height="1" fill="#17181C"/><rect x="98" y="12" width="3" height="1" fill="#17181C"/><rect x="113" y="12" width="3" height="1" fill="#17181C"/><rect x="122" y="12" width="3" height="1" fill="#17181C"/><rect x="137" y="12" width="3" height="1" fill="#17181C"/><rect x="151" y="12" width="7" height="1" fill="#17181C"/><rect x="168" y="12" width="3" height="1" fill="#17181C"/><rect x="183" y="12" width="3" height="1" fill="#17181C"/><rect x="191" y="12" width="7" height="1" fill="#17181C"/><rect x="208" y="12" width="6" height="1" fill="#17181C"/><rect x="220" y="12" width="4" height="1" fill="#17181C"/><rect x="5" y="13" width="3" height="1" fill="#17181C"/><rect x="26" y="13" width="3" height="1" fill="#17181C"/><rect x="30" y="13" width="3" height="1" fill="#17181C"/><rect x="43" y="13" width="6" height="1" fill="#17181C"/><rect x="53" y="13" width="4" height="1" fill="#17181C"/><rect x="67" y="13" width="4" height="1" fill="#17181C"/><rect x="76" y="13" width="3" height="1" fill="#17181C"/><rect x="98" y="13" width="3" height="1" fill="#17181C"/><rect x="113" y="13" width="4" height="1" fill="#17181C"/><rect x="122" y="13" width="3" height="1" fill="#17181C"/><rect x="137" y="13" width="3" height="1" fill="#17181C"/><rect x="150" y="13" width="3" height="1" fill="#17181C"/><rect x="155" y="13" width="3" height="1" fill="#17181C"/><rect x="168" y="13" width="3" height="1" fill="#17181C"/><rect x="183" y="13" width="4" height="1" fill="#17181C"/><rect x="191" y="13" width="3" height="1" fill="#17181C"/><rect x="195" y="13" width="3" height="1" fill="#17181C"/><rect x="208" y="13" width="6" height="1" fill="#17181C"/><rect x="219" y="13" width="4" height="1" fill="#17181C"/><rect x="5" y="14" width="3" height="1" fill="#17181C"/><rect x="26" y="14" width="3" height="1" fill="#17181C"/><rect x="30" y="14" width="3" height="1" fill="#17181C"/><rect x="42" y="14" width="3" height="1" fill="#17181C"/><rect x="46" y="14" width="3" height="1" fill="#17181C"/><rect x="53" y="14" width="4" height="1" fill="#17181C"/><rect x="67" y="14" width="3" height="1" fill="#17181C"/><rect x="76" y="14" width="3" height="1" fill="#17181C"/><rect x="98" y="14" width="3" height="1" fill="#17181C"/><rect x="113" y="14" width="4" height="1" fill="#17181C"/><rect x="122" y="14" width="3" height="1" fill="#17181C"/><rect x="137" y="14" width="3" height="1" fill="#17181C"/><rect x="150" y="14" width="3" height="1" fill="#17181C"/><rect x="155" y="14" width="3" height="1" fill="#17181C"/><rect x="168" y="14" width="3" height="1" fill="#17181C"/><rect x="183" y="14" width="4" height="1" fill="#17181C"/><rect x="191" y="14" width="3" height="1" fill="#17181C"/><rect x="195" y="14" width="3" height="1" fill="#17181C"/><rect x="207" y="14" width="3" height="1" fill="#17181C"/><rect x="211" y="14" width="3" height="1" fill="#17181C"/><rect x="219" y="14" width="3" height="1" fill="#17181C"/><rect x="5" y="15" width="3" height="1" fill="#17181C"/><rect x="26" y="15" width="3" height="1" fill="#17181C"/><rect x="31" y="15" width="3" height="1" fill="#17181C"/><rect x="42" y="15" width="3" height="1" fill="#17181C"/><rect x="46" y="15" width="3" height="1" fill="#17181C"/><rect x="53" y="15" width="4" height="1" fill="#17181C"/><rect x="67" y="15" width="3" height="1" fill="#17181C"/><rect x="76" y="15" width="3" height="1" fill="#17181C"/><rect x="98" y="15" width="3" height="1" fill="#17181C"/><rect x="113" y="15" width="4" height="1" fill="#17181C"/><rect x="122" y="15" width="3" height="1" fill="#17181C"/><rect x="137" y="15" width="3" height="1" fill="#17181C"/><rect x="150" y="15" width="3" height="1" fill="#17181C"/><rect x="155" y="15" width="4" height="1" fill="#17181C"/><rect x="168" y="15" width="3" height="1" fill="#17181C"/><rect x="183" y="15" width="4" height="1" fill="#17181C"/><rect x="191" y="15" width="3" height="1" fill="#17181C"/><rect x="196" y="15" width="3" height="1" fill="#17181C"/><rect x="207" y="15" width="3" height="1" fill="#17181C"/><rect x="211" y="15" width="3" height="1" fill="#17181C"/><rect x="218" y="15" width="4" height="1" fill="#17181C"/><rect x="5" y="16" width="3" height="1" fill="#17181C"/><rect x="26" y="16" width="3" height="1" fill="#17181C"/><rect x="31" y="16" width="3" height="1" fill="#17181C"/><rect x="42" y="16" width="3" height="1" fill="#17181C"/><rect x="46" y="16" width="3" height="1" fill="#17181C"/><rect x="53" y="16" width="4" height="1" fill="#17181C"/><rect x="67" y="16" width="3" height="1" fill="#17181C"/><rect x="76" y="16" width="3" height="1" fill="#17181C"/><rect x="98" y="16" width="3" height="1" fill="#17181C"/><rect x="113" y="16" width="3" height="1" fill="#17181C"/><rect x="122" y="16" width="3" height="1" fill="#17181C"/><rect x="137" y="16" width="3" height="1" fill="#17181C"/><rect x="149" y="16" width="3" height="1" fill="#17181C"/><rect x="156" y="16" width="3" height="1" fill="#17181C"/><rect x="168" y="16" width="3" height="1" fill="#17181C"/><rect x="183" y="16" width="3" height="1" fill="#17181C"/><rect x="191" y="16" width="3" height="1" fill="#17181C"/><rect x="196" y="16" width="3" height="1" fill="#17181C"/><rect x="207" y="16" width="3" height="1" fill="#17181C"/><rect x="211" y="16" width="3" height="1" fill="#17181C"/><rect x="218" y="16" width="3" height="1" fill="#17181C"/><rect x="5" y="17" width="3" height="1" fill="#17181C"/><rect x="26" y="17" width="3" height="1" fill="#17181C"/><rect x="31" y="17" width="3" height="1" fill="#17181C"/><rect x="41" y="17" width="3" height="1" fill="#17181C"/><rect x="46" y="17" width="3" height="1" fill="#17181C"/><rect x="53" y="17" width="4" height="1" fill="#17181C"/><rect x="65" y="17" width="4" height="1" fill="#17181C"/><rect x="76" y="17" width="3" height="1" fill="#17181C"/><rect x="98" y="17" width="3" height="1" fill="#17181C"/><rect x="113" y="17" width="3" height="1" fill="#17181C"/><rect x="122" y="17" width="3" height="1" fill="#17181C"/><rect x="137" y="17" width="3" height="1" fill="#17181C"/><rect x="149" y="17" width="3" height="1" fill="#17181C"/><rect x="156" y="17" width="3" height="1" fill="#17181C"/><rect x="168" y="17" width="3" height="1" fill="#17181C"/><rect x="183" y="17" width="3" height="1" fill="#17181C"/><rect x="191" y="17" width="3" height="1" fill="#17181C"/><rect x="196" y="17" width="3" height="1" fill="#17181C"/><rect x="206" y="17" width="3" height="1" fill="#17181C"/><rect x="211" y="17" width="3" height="1" fill="#17181C"/><rect x="218" y="17" width="3" height="1" fill="#17181C"/><rect x="5" y="18" width="16" height="1" fill="#17181C"/><rect x="26" y="18" width="3" height="1" fill="#17181C"/><rect x="32" y="18" width="3" height="1" fill="#17181C"/><rect x="41" y="18" width="3" height="1" fill="#17181C"/><rect x="46" y="18" width="3" height="1" fill="#17181C"/><rect x="53" y="18" width="15" height="1" fill="#17181C"/><rect x="76" y="18" width="16" height="1" fill="#17181C"/><rect x="98" y="18" width="3" height="1" fill="#17181C"/><rect x="111" y="18" width="4" height="1" fill="#17181C"/><rect x="122" y="18" width="18" height="1" fill="#17181C"/><rect x="148" y="18" width="4" height="1" fill="#17181C"/><rect x="156" y="18" width="4" height="1" fill="#17181C"/><rect x="168" y="18" width="3" height="1" fill="#17181C"/><rect x="181" y="18" width="4" height="1" fill="#17181C"/><rect x="191" y="18" width="3" height="1" fill="#17181C"/><rect x="197" y="18" width="3" height="1" fill="#17181C"/><rect x="206" y="18" width="3" height="1" fill="#17181C"/><rect x="211" y="18" width="3" height="1" fill="#17181C"/><rect x="217" y="18" width="4" height="1" fill="#17181C"/><rect x="5" y="19" width="16" height="1" fill="#17181C"/><rect x="26" y="19" width="3" height="1" fill="#17181C"/><rect x="32" y="19" width="3" height="1" fill="#17181C"/><rect x="41" y="19" width="3" height="1" fill="#17181C"/><rect x="46" y="19" width="3" height="1" fill="#17181C"/><rect x="53" y="19" width="15" height="1" fill="#17181C"/><rect x="76" y="19" width="16" height="1" fill="#17181C"/><rect x="98" y="19" width="17" height="1" fill="#17181C"/><rect x="122" y="19" width="18" height="1" fill="#17181C"/><rect x="148" y="19" width="3" height="1" fill="#17181C"/><rect x="157" y="19" width="3" height="1" fill="#17181C"/><rect x="168" y="19" width="17" height="1" fill="#17181C"/><rect x="191" y="19" width="3" height="1" fill="#17181C"/><rect x="197" y="19" width="3" height="1" fill="#17181C"/><rect x="206" y="19" width="3" height="1" fill="#17181C"/><rect x="211" y="19" width="3" height="1" fill="#17181C"/><rect x="217" y="19" width="4" height="1" fill="#17181C"/><rect x="5" y="20" width="16" height="1" fill="#17181C"/><rect x="26" y="20" width="3" height="1" fill="#17181C"/><rect x="32" y="20" width="3" height="1" fill="#17181C"/><rect x="40" y="20" width="3" height="1" fill="#17181C"/><rect x="46" y="20" width="3" height="1" fill="#17181C"/><rect x="53" y="20" width="17" height="1" fill="#17181C"/><rect x="76" y="20" width="16" height="1" fill="#17181C"/><rect x="98" y="20" width="16" height="1" fill="#17181C"/><rect x="122" y="20" width="18" height="1" fill="#17181C"/><rect x="148" y="20" width="3" height="1" fill="#17181C"/><rect x="157" y="20" width="3" height="1" fill="#17181C"/><rect x="168" y="20" width="16" height="1" fill="#17181C"/><rect x="191" y="20" width="3" height="1" fill="#17181C"/><rect x="197" y="20" width="3" height="1" fill="#17181C"/><rect x="205" y="20" width="3" height="1" fill="#17181C"/><rect x="211" y="20" width="3" height="1" fill="#17181C"/><rect x="217" y="20" width="4" height="1" fill="#17181C"/><rect x="5" y="21" width="3" height="1" fill="#17181C"/><rect x="26" y="21" width="3" height="1" fill="#17181C"/><rect x="33" y="21" width="3" height="1" fill="#17181C"/><rect x="40" y="21" width="3" height="1" fill="#17181C"/><rect x="46" y="21" width="3" height="1" fill="#17181C"/><rect x="53" y="21" width="4" height="1" fill="#17181C"/><rect x="66" y="21" width="5" height="1" fill="#17181C"/><rect x="76" y="21" width="3" height="1" fill="#17181C"/><rect x="98" y="21" width="17" height="1" fill="#17181C"/><rect x="122" y="21" width="3" height="1" fill="#17181C"/><rect x="137" y="21" width="3" height="1" fill="#17181C"/><rect x="147" y="21" width="3" height="1" fill="#17181C"/><rect x="157" y="21" width="4" height="1" fill="#17181C"/><rect x="168" y="21" width="17" height="1" fill="#17181C"/><rect x="191" y="21" width="3" height="1" fill="#17181C"/><rect x="198" y="21" width="3" height="1" fill="#17181C"/><rect x="205" y="21" width="3" height="1" fill="#17181C"/><rect x="211" y="21" width="3" height="1" fill="#17181C"/><rect x="217" y="21" width="4" height="1" fill="#17181C"/><rect x="5" y="22" width="3" height="1" fill="#17181C"/><rect x="26" y="22" width="3" height="1" fill="#17181C"/><rect x="33" y="22" width="3" height="1" fill="#17181C"/><rect x="40" y="22" width="3" height="1" fill="#17181C"/><rect x="46" y="22" width="3" height="1" fill="#17181C"/><rect x="53" y="22" width="4" height="1" fill="#17181C"/><rect x="68" y="22" width="3" height="1" fill="#17181C"/><rect x="76" y="22" width="3" height="1" fill="#17181C"/><rect x="98" y="22" width="3" height="1" fill="#17181C"/><rect x="111" y="22" width="5" height="1" fill="#17181C"/><rect x="122" y="22" width="3" height="1" fill="#17181C"/><rect x="137" y="22" width="3" height="1" fill="#17181C"/><rect x="147" y="22" width="14" height="1" fill="#17181C"/><rect x="168" y="22" width="3" height="1" fill="#17181C"/><rect x="181" y="22" width="5" height="1" fill="#17181C"/><rect x="191" y="22" width="3" height="1" fill="#17181C"/><rect x="198" y="22" width="3" height="1" fill="#17181C"/><rect x="205" y="22" width="3" height="1" fill="#17181C"/><rect x="211" y="22" width="3" height="1" fill="#17181C"/><rect x="217" y="22" width="4" height="1" fill="#17181C"/><rect x="5" y="23" width="3" height="1" fill="#17181C"/><rect x="26" y="23" width="3" height="1" fill="#17181C"/><rect x="33" y="23" width="3" height="1" fill="#17181C"/><rect x="39" y="23" width="3" height="1" fill="#17181C"/><rect x="46" y="23" width="3" height="1" fill="#17181C"/><rect x="53" y="23" width="4" height="1" fill="#17181C"/><rect x="68" y="23" width="4" height="1" fill="#17181C"/><rect x="76" y="23" width="3" height="1" fill="#17181C"/><rect x="98" y="23" width="3" height="1" fill="#17181C"/><rect x="112" y="23" width="4" height="1" fill="#17181C"/><rect x="122" y="23" width="3" height="1" fill="#17181C"/><rect x="137" y="23" width="3" height="1" fill="#17181C"/><rect x="147" y="23" width="15" height="1" fill="#17181C"/><rect x="168" y="23" width="3" height="1" fill="#17181C"/><rect x="182" y="23" width="4" height="1" fill="#17181C"/><rect x="191" y="23" width="3" height="1" fill="#17181C"/><rect x="198" y="23" width="3" height="1" fill="#17181C"/><rect x="204" y="23" width="3" height="1" fill="#17181C"/><rect x="211" y="23" width="3" height="1" fill="#17181C"/><rect x="218" y="23" width="3" height="1" fill="#17181C"/><rect x="5" y="24" width="3" height="1" fill="#17181C"/><rect x="26" y="24" width="3" height="1" fill="#17181C"/><rect x="34" y="24" width="3" height="1" fill="#17181C"/><rect x="39" y="24" width="3" height="1" fill="#17181C"/><rect x="46" y="24" width="3" height="1" fill="#17181C"/><rect x="53" y="24" width="4" height="1" fill="#17181C"/><rect x="68" y="24" width="4" height="1" fill="#17181C"/><rect x="76" y="24" width="3" height="1" fill="#17181C"/><rect x="98" y="24" width="3" height="1" fill="#17181C"/><rect x="113" y="24" width="3" height="1" fill="#17181C"/><rect x="122" y="24" width="3" height="1" fill="#17181C"/><rect x="137" y="24" width="3" height="1" fill="#17181C"/><rect x="146" y="24" width="16" height="1" fill="#17181C"/><rect x="168" y="24" width="3" height="1" fill="#17181C"/><rect x="183" y="24" width="3" height="1" fill="#17181C"/><rect x="191" y="24" width="3" height="1" fill="#17181C"/><rect x="199" y="24" width="3" height="1" fill="#17181C"/><rect x="204" y="24" width="3" height="1" fill="#17181C"/><rect x="211" y="24" width="3" height="1" fill="#17181C"/><rect x="218" y="24" width="3" height="1" fill="#17181C"/><rect x="5" y="25" width="3" height="1" fill="#17181C"/><rect x="26" y="25" width="3" height="1" fill="#17181C"/><rect x="34" y="25" width="3" height="1" fill="#17181C"/><rect x="39" y="25" width="3" height="1" fill="#17181C"/><rect x="46" y="25" width="3" height="1" fill="#17181C"/><rect x="53" y="25" width="4" height="1" fill="#17181C"/><rect x="68" y="25" width="4" height="1" fill="#17181C"/><rect x="76" y="25" width="3" height="1" fill="#17181C"/><rect x="98" y="25" width="3" height="1" fill="#17181C"/><rect x="113" y="25" width="3" height="1" fill="#17181C"/><rect x="122" y="25" width="3" height="1" fill="#17181C"/><rect x="137" y="25" width="3" height="1" fill="#17181C"/><rect x="146" y="25" width="3" height="1" fill="#17181C"/><rect x="159" y="25" width="3" height="1" fill="#17181C"/><rect x="168" y="25" width="3" height="1" fill="#17181C"/><rect x="183" y="25" width="3" height="1" fill="#17181C"/><rect x="191" y="25" width="3" height="1" fill="#17181C"/><rect x="199" y="25" width="3" height="1" fill="#17181C"/><rect x="204" y="25" width="3" height="1" fill="#17181C"/><rect x="211" y="25" width="3" height="1" fill="#17181C"/><rect x="218" y="25" width="4" height="1" fill="#17181C"/><rect x="5" y="26" width="3" height="1" fill="#17181C"/><rect x="26" y="26" width="3" height="1" fill="#17181C"/><rect x="34" y="26" width="3" height="1" fill="#17181C"/><rect x="38" y="26" width="3" height="1" fill="#17181C"/><rect x="46" y="26" width="3" height="1" fill="#17181C"/><rect x="53" y="26" width="4" height="1" fill="#17181C"/><rect x="68" y="26" width="3" height="1" fill="#17181C"/><rect x="76" y="26" width="3" height="1" fill="#17181C"/><rect x="98" y="26" width="3" height="1" fill="#17181C"/><rect x="113" y="26" width="3" height="1" fill="#17181C"/><rect x="122" y="26" width="3" height="1" fill="#17181C"/><rect x="137" y="26" width="3" height="1" fill="#17181C"/><rect x="146" y="26" width="3" height="1" fill="#17181C"/><rect x="159" y="26" width="4" height="1" fill="#17181C"/><rect x="168" y="26" width="3" height="1" fill="#17181C"/><rect x="183" y="26" width="3" height="1" fill="#17181C"/><rect x="191" y="26" width="3" height="1" fill="#17181C"/><rect x="199" y="26" width="3" height="1" fill="#17181C"/><rect x="203" y="26" width="3" height="1" fill="#17181C"/><rect x="211" y="26" width="3" height="1" fill="#17181C"/><rect x="218" y="26" width="4" height="1" fill="#17181C"/><rect x="5" y="27" width="3" height="1" fill="#17181C"/><rect x="26" y="27" width="3" height="1" fill="#17181C"/><rect x="35" y="27" width="6" height="1" fill="#17181C"/><rect x="46" y="27" width="3" height="1" fill="#17181C"/><rect x="53" y="27" width="4" height="1" fill="#17181C"/><rect x="68" y="27" width="3" height="1" fill="#17181C"/><rect x="76" y="27" width="3" height="1" fill="#17181C"/><rect x="98" y="27" width="3" height="1" fill="#17181C"/><rect x="113" y="27" width="3" height="1" fill="#17181C"/><rect x="122" y="27" width="3" height="1" fill="#17181C"/><rect x="137" y="27" width="3" height="1" fill="#17181C"/><rect x="145" y="27" width="3" height="1" fill="#17181C"/><rect x="160" y="27" width="3" height="1" fill="#17181C"/><rect x="168" y="27" width="3" height="1" fill="#17181C"/><rect x="183" y="27" width="3" height="1" fill="#17181C"/><rect x="191" y="27" width="3" height="1" fill="#17181C"/><rect x="200" y="27" width="6" height="1" fill="#17181C"/><rect x="211" y="27" width="3" height="1" fill="#17181C"/><rect x="219" y="27" width="4" height="1" fill="#17181C"/><rect x="5" y="28" width="3" height="1" fill="#17181C"/><rect x="26" y="28" width="3" height="1" fill="#17181C"/><rect x="35" y="28" width="6" height="1" fill="#17181C"/><rect x="46" y="28" width="3" height="1" fill="#17181C"/><rect x="53" y="28" width="4" height="1" fill="#17181C"/><rect x="66" y="28" width="5" height="1" fill="#17181C"/><rect x="76" y="28" width="3" height="1" fill="#17181C"/><rect x="98" y="28" width="3" height="1" fill="#17181C"/><rect x="113" y="28" width="3" height="1" fill="#17181C"/><rect x="122" y="28" width="3" height="1" fill="#17181C"/><rect x="137" y="28" width="3" height="1" fill="#17181C"/><rect x="145" y="28" width="3" height="1" fill="#17181C"/><rect x="160" y="28" width="3" height="1" fill="#17181C"/><rect x="168" y="28" width="3" height="1" fill="#17181C"/><rect x="183" y="28" width="3" height="1" fill="#17181C"/><rect x="191" y="28" width="3" height="1" fill="#17181C"/><rect x="200" y="28" width="6" height="1" fill="#17181C"/><rect x="211" y="28" width="3" height="1" fill="#17181C"/><rect x="219" y="28" width="5" height="1" fill="#17181C"/><rect x="5" y="29" width="17" height="1" fill="#17181C"/><rect x="26" y="29" width="3" height="1" fill="#17181C"/><rect x="35" y="29" width="5" height="1" fill="#17181C"/><rect x="46" y="29" width="3" height="1" fill="#17181C"/><rect x="53" y="29" width="17" height="1" fill="#17181C"/><rect x="76" y="29" width="17" height="1" fill="#17181C"/><rect x="98" y="29" width="3" height="1" fill="#17181C"/><rect x="113" y="29" width="3" height="1" fill="#17181C"/><rect x="122" y="29" width="3" height="1" fill="#17181C"/><rect x="137" y="29" width="3" height="1" fill="#17181C"/><rect x="144" y="29" width="4" height="1" fill="#17181C"/><rect x="160" y="29" width="4" height="1" fill="#17181C"/><rect x="168" y="29" width="3" height="1" fill="#17181C"/><rect x="183" y="29" width="3" height="1" fill="#17181C"/><rect x="191" y="29" width="3" height="1" fill="#17181C"/><rect x="200" y="29" width="5" height="1" fill="#17181C"/><rect x="211" y="29" width="3" height="1" fill="#17181C"/><rect x="220" y="29" width="6" height="1" fill="#17181C"/><rect x="232" y="29" width="2" height="1" fill="#17181C"/><rect x="5" y="30" width="17" height="1" fill="#17181C"/><rect x="26" y="30" width="3" height="1" fill="#17181C"/><rect x="36" y="30" width="4" height="1" fill="#17181C"/><rect x="46" y="30" width="3" height="1" fill="#17181C"/><rect x="53" y="30" width="16" height="1" fill="#17181C"/><rect x="76" y="30" width="17" height="1" fill="#17181C"/><rect x="98" y="30" width="3" height="1" fill="#17181C"/><rect x="113" y="30" width="4" height="1" fill="#17181C"/><rect x="122" y="30" width="3" height="1" fill="#17181C"/><rect x="137" y="30" width="3" height="1" fill="#17181C"/><rect x="144" y="30" width="3" height="1" fill="#17181C"/><rect x="161" y="30" width="3" height="1" fill="#17181C"/><rect x="168" y="30" width="3" height="1" fill="#17181C"/><rect x="183" y="30" width="4" height="1" fill="#17181C"/><rect x="191" y="30" width="3" height="1" fill="#17181C"/><rect x="201" y="30" width="4" height="1" fill="#17181C"/><rect x="211" y="30" width="3" height="1" fill="#17181C"/><rect x="221" y="30" width="13" height="1" fill="#17181C"/><rect x="5" y="31" width="17" height="1" fill="#17181C"/><rect x="26" y="31" width="3" height="1" fill="#17181C"/><rect x="36" y="31" width="4" height="1" fill="#17181C"/><rect x="46" y="31" width="3" height="1" fill="#17181C"/><rect x="53" y="31" width="14" height="1" fill="#17181C"/><rect x="76" y="31" width="17" height="1" fill="#17181C"/><rect x="98" y="31" width="3" height="1" fill="#17181C"/><rect x="113" y="31" width="5" height="1" fill="#17181C"/><rect x="122" y="31" width="3" height="1" fill="#17181C"/><rect x="137" y="31" width="3" height="1" fill="#17181C"/><rect x="144" y="31" width="3" height="1" fill="#17181C"/><rect x="161" y="31" width="3" height="1" fill="#17181C"/><rect x="168" y="31" width="3" height="1" fill="#17181C"/><rect x="183" y="31" width="5" height="1" fill="#17181C"/><rect x="191" y="31" width="3" height="1" fill="#17181C"/><rect x="201" y="31" width="4" height="1" fill="#17181C"/><rect x="211" y="31" width="3" height="1" fill="#17181C"/><rect x="223" y="31" width="11" height="1" fill="#17181C"/><rect x="225" y="32" width="7" height="1" fill="#17181C"/></svg>